<?xml version="1.0" encoding="UTF-8"?>
<svg width="41px" height="50px" viewBox="0 0 41 50" version="1.1" xmlns="http://www.w3.org/2000/svg" xmlns:xlink="http://www.w3.org/1999/xlink">
    <!-- Generator: Sketch 50.2 (55047) - http://www.bohemiancoding.com/sketch -->
    <title>Fill 74</title>
    <desc>Created with Sketch.</desc>
    <defs></defs>
    <g id="Risk-Assessment-Process" stroke="none" stroke-width="1" fill="none" fill-rule="evenodd">
        <g id="00.2.-PTB-–-Info" transform="translate(-633.000000, -294.000000)" fill="#905CB8">
            <g id="Group-16" transform="translate(580.000000, 294.000000)">
                <g id="Fill-74" transform="translate(53.000000, 0.000000)">
                    <path d="M27.3333333,13.6363636 L27.3333333,2.27272727 L38.7222222,13.6363636 L27.3333333,13.6363636 Z M20.3565,40.9090909 C20.3565,40.9090909 11.3888889,35.5318182 11.3888889,29.8340909 C11.3888889,24.4227273 18.6345,22.0772727 20.6435,29.1795455 C22.6547778,22.0772727 29.6111111,24.4227273 29.6111111,29.8340909 C29.6111111,35.9772727 21.1241111,40.4613636 20.3565,40.9090909 L20.3565,40.9090909 Z M30.5541111,0 L4.55555556,0 C2.04316667,0 0,2.04090909 0,4.54545455 L0,45.4545455 C0,47.9613636 2.04316667,50 4.55555556,50 L36.4444444,50 C38.9568333,50 41,47.9613636 41,45.4545455 L41,10.4227273 L30.5541111,0 Z"></path>
                </g>
            </g>
        </g>
    </g>
</svg>