<?xml version="1.0" encoding="UTF-8"?>
<svg width="20px" height="13px" viewBox="0 0 20 13" version="1.1" xmlns="http://www.w3.org/2000/svg" xmlns:xlink="http://www.w3.org/1999/xlink">
    <!-- Generator: Sketch 50.2 (55047) - http://www.bohemiancoding.com/sketch -->
    <title>Fill 2463 + Fill 2464</title>
    <desc>Created with Sketch.</desc>
    <defs></defs>
    <g id="Risk-Assessment-Process" stroke="none" stroke-width="1" fill="none" fill-rule="evenodd">
        <g id="XX1.-Patient-–-PHR" transform="translate(-20.000000, -151.000000)" fill="#FFFFFF">
            <g id="Group-4">
                <g id="Fill-2463-+-Fill-2464" transform="translate(20.000000, 151.000000)">
                    <path d="M10,5.8232 L18.965,0.2592 C18.678,0.0992 18.352,0.0002 18,0.0002 L2,0.0002 C1.648,0.0002 1.322,0.0992 1.035,0.2592 L10,5.8232 Z" id="Fill-2463"></path>
                    <path d="M10.5273,7.8496 C10.3653,7.9496 10.1833,7.9996 10.0003,7.9996 C9.8173,7.9996 9.6343,7.9496 9.4723,7.8496 L0.0033,1.9726 C0.0033,1.9826 0.0003,1.9916 0.0003,1.9996 L0.0003,10.9996 C0.0003,12.1026 0.8973,12.9996 2.0003,12.9996 L18.0003,12.9996 C19.1033,12.9996 20.0003,12.1026 20.0003,10.9996 L20.0003,1.9996 C20.0003,1.9916 19.9973,1.9826 19.9973,1.9726 L10.5273,7.8496 Z" id="Fill-2464"></path>
                </g>
            </g>
        </g>
    </g>
</svg>