<?xml version="1.0" encoding="UTF-8"?>
<svg width="83px" height="100px" viewBox="0 0 83 100" version="1.1" xmlns="http://www.w3.org/2000/svg" xmlns:xlink="http://www.w3.org/1999/xlink">
    <!-- Generator: Sketch 50.2 (55047) - http://www.bohemiancoding.com/sketch -->
    <title>Fill 350 + Fill 351 + Fill 352</title>
    <desc>Created with Sketch.</desc>
    <defs></defs>
    <g id="Risk-Assessment-Process" stroke="none" stroke-width="1" fill="none" fill-rule="evenodd">
        <g id="00.-Patient-–-Home" transform="translate(-258.000000, -746.000000)" fill="#14B8A7">
            <g id="Fill-350-+-Fill-351-+-Fill-352" transform="translate(258.000000, 746.000000)">
                <path d="M74.7,12.5 L66.4,12.5 L66.4,25 L70.55,25 L70.55,87.5 L12.45,87.5 L12.45,25 L16.6,25 L16.6,12.5 L8.3,12.5 C3.72255,12.5 0,16.2375 0,20.8333333 L0,91.6666667 C0,96.2625 3.72255,100 8.3,100 L74.7,100 C79.27745,100 83,96.2625 83,91.6666667 L83,20.8333333 C83,16.2375 79.27745,12.5 74.7,12.5" id="Fill-350"></path>
                <path d="M48.14,43.3333333 C44.47472,43.3333333 41.5,46.6666667 41.5,50 C41.5,46.6666667 38.52528,43.3333333 34.86,43.3333333 C31.19472,43.3333333 28.22,46.3166667 28.22,50 C28.22,60 41.5,70 41.5,70 C41.5,70 54.78,60 54.78,50 C54.78,46.3166667 51.80528,43.3333333 48.14,43.3333333" id="Fill-3960"></path>
                <path d="M24.9,29.1666667 L58.1,29.1666667 C60.3908,29.1666667 62.25,27.3 62.25,25 L62.25,12.5 C62.25,10.2 60.3908,8.33333333 58.1,8.33333333 L53.24035,8.33333333 C51.5264,3.48333333 46.9116,0 41.5,0 C36.0884,0 31.4736,3.48333333 29.75965,8.33333333 L24.9,8.33333333 C22.6092,8.33333333 20.75,10.2 20.75,12.5 L20.75,25 C20.75,27.3 22.6092,29.1666667 24.9,29.1666667" id="Fill-351"></path>
            </g>
        </g>
    </g>
</svg>