<?xml version="1.0" encoding="UTF-8"?>
<svg width="80px" height="80px" viewBox="0 0 80 80" version="1.1" xmlns="http://www.w3.org/2000/svg" xmlns:xlink="http://www.w3.org/1999/xlink">
    <!-- Generator: Sketch 50.2 (55047) - http://www.bohemiancoding.com/sketch -->
    <title>Group 15</title>
    <desc>Created with Sketch.</desc>
    <defs></defs>
    <g id="Risk-Assessment-Process" stroke="none" stroke-width="1" fill="none" fill-rule="evenodd">
        <g id="00.-Patient-–-Home" transform="translate(-140.000000, -1926.000000)" fill="#14B8A7">
            <g id="Group-15" transform="translate(140.000000, 1926.000000)">
                <g id="Fill-1279-+-Fill-1280-+-Fill-1281">
                    <path d="M9.89767442,32.9674419 C9.89767442,20.2467721 20.2467721,9.89767442 32.9674419,9.89767442 C45.6881116,9.89767442 56.0372093,20.2467721 56.0372093,32.9674419 C56.0372093,45.6881116 45.6881116,56.0372093 32.9674419,56.0372093 C20.2467721,56.0372093 9.89767442,45.6881116 9.89767442,32.9674419 L9.89767442,32.9674419 Z M79.2730791,69.6483721 L60.0836465,50.4589395 C63.3457116,45.4112744 65.2651163,39.4131349 65.2651163,32.9674419 C65.2651163,15.1575814 50.7773023,0.669767442 32.9674419,0.669767442 C15.1575814,0.669767442 0.669767442,15.1575814 0.669767442,32.9674419 C0.669767442,50.7773023 15.1575814,65.2651163 32.9674419,65.2651163 C39.3254698,65.2651163 45.249786,63.3918512 50.2513116,60.2036093 L69.4822698,79.4345674 L79.2730791,69.6483721 Z" id="Fill-1281"></path>
                </g>
            </g>
        </g>
    </g>
</svg>