<?xml version="1.0" encoding="UTF-8"?>
<svg width="117px" height="100px" viewBox="0 0 117 100" version="1.1" xmlns="http://www.w3.org/2000/svg" xmlns:xlink="http://www.w3.org/1999/xlink">
    <!-- Generator: Sketch 50.2 (55047) - http://www.bohemiancoding.com/sketch -->
    <title>Fill 3010 + Fill 3011 + Fill 3012</title>
    <desc>Created with Sketch.</desc>
    <defs></defs>
    <g id="Risk-Assessment-Process" stroke="none" stroke-width="1" fill="none" fill-rule="evenodd">
        <g id="00.-Patient-–-Home" transform="translate(-666.000000, -743.000000)" fill="#14B8A7">
            <g id="Fill-3010-+-Fill-3011-+-Fill-3012" transform="translate(666.000000, 743.000000)">
                <path d="M105.857143,11.1111111 C99.7062857,11.1111111 94.7142857,16.0888889 94.7142857,22.2222222 L94.7142857,72.2222222 L117,72.2222222 L117,22.2222222 C117,16.0888889 112.008,11.1111111 105.857143,11.1111111" id="Fill-3010"></path>
                <polygon id="Fill-3011" points="105.857143 100 117 83.3333333 94.7142857 83.3333333"></polygon>
                <path d="M61.2857143,33.3333333 L16.7142857,33.3333333 L16.7142857,22.2222222 L61.2857143,22.2222222 L61.2857143,33.3333333 Z M61.2857143,55.5555556 L16.7142857,55.5555556 L16.7142857,44.4444444 L61.2857143,44.4444444 L61.2857143,55.5555556 Z M44.5714286,77.7777778 L16.7142857,77.7777778 L16.7142857,66.6666667 L44.5714286,66.6666667 L44.5714286,77.7777778 Z M66.8571429,0 L11.1428571,0 C4.99757143,0 0,4.98333333 0,11.1111111 L0,88.8888889 C0,95.0166667 4.99757143,100 11.1428571,100 L66.8571429,100 C73.0024286,100 78,95.0166667 78,88.8888889 L78,11.1111111 C78,4.98333333 73.0024286,0 66.8571429,0 L66.8571429,0 Z" id="Fill-3012"></path>
            </g>
        </g>
    </g>
</svg>