<?xml version="1.0" encoding="UTF-8"?>
<svg width="65px" height="80px" viewBox="0 0 65 80" version="1.1" xmlns="http://www.w3.org/2000/svg" xmlns:xlink="http://www.w3.org/1999/xlink">
    <!-- Generator: Sketch 50.2 (55047) - http://www.bohemiancoding.com/sketch -->
    <title>Group 15</title>
    <desc>Created with Sketch.</desc>
    <defs></defs>
    <g id="Risk-Assessment-Process" stroke="none" stroke-width="1" fill="none" fill-rule="evenodd">
        <g id="00.-Patient-–-Home" transform="translate(-398.000000, -1926.000000)" fill="#14B8A7">
            <g id="Group-15" transform="translate(398.000000, 1926.000000)">
                <g id="Fill-299">
                    <path d="M44.6875,20 L44.6875,4 L60.9375,20 L44.6875,20 Z M52.8125,57.1612903 L12.1875,57.1612903 L12.1875,52 L52.8125,52 L52.8125,57.1612903 Z M52.8125,69.1612903 L12.1875,69.1612903 L12.1875,64 L52.8125,64 L52.8125,69.1612903 Z M20.3125,28 L28.4375,28 L28.4375,20 L36.5625,20 L36.5625,28 L44.6875,28 L44.6875,36 L36.5625,36 L36.5625,44 L28.4375,44 L28.4375,36 L20.3125,36 L20.3125,28 Z M63.8096875,17.172 L47.5596875,1.172 C46.7959375,0.424 45.7640625,0 44.6875,0 L4.0625,0 C1.82,0 0,1.792 0,4 L0,76 C0,78.208 1.82,80 4.0625,80 L60.9375,80 C63.18,80 65,78.208 65,76 L65,20 C65,18.94 64.569375,17.92 63.8096875,17.172 L63.8096875,17.172 Z"></path>
                </g>
            </g>
        </g>
    </g>
</svg>