<?xml version="1.0" encoding="UTF-8"?>
<svg width="50px" height="50px" viewBox="0 0 50 50" version="1.1" xmlns="http://www.w3.org/2000/svg" xmlns:xlink="http://www.w3.org/1999/xlink">
    <!-- Generator: Sketch 50.2 (55047) - http://www.bohemiancoding.com/sketch -->
    <title>Fill 496</title>
    <desc>Created with Sketch.</desc>
    <defs></defs>
    <g id="Risk-Assessment-Process" stroke="none" stroke-width="1" fill="none" fill-rule="evenodd">
        <g id="00.3.-Advocacy-–-Info" transform="translate(-861.000000, -532.000000)" fill="#D66D75">
            <g id="Group-16-Copy" transform="translate(801.000000, 532.000000)">
                <g id="Fill-496" transform="translate(60.000000, 0.000000)">
                    <path d="M25,36.6666667 C25,36.6666667 11.6666667,28.8880246 11.6666667,21.1093825 C11.6666667,16.818165 14.3333333,13.3333333 19.6666667,13.3333333 C22.3333333,13.3333333 25,15.9236211 25,18.5165018 C25,15.9236211 27.6666667,13.3333333 30.3333333,13.3333333 C35.6666667,13.3333333 38.3333333,16.818165 38.3333333,21.1093825 C38.3333333,28.8880246 25,36.6666667 25,36.6666667 M25,0 C11.215,0 0,11.215 0,25 C0,38.785 11.215,50 25,50 C38.785,50 50,38.785 50,25 C50,11.215 38.785,0 25,0"></path>
                </g>
            </g>
        </g>
    </g>
</svg>