<?xml version="1.0" encoding="UTF-8"?>
<svg width="100px" height="84px" viewBox="0 0 100 84" version="1.1" xmlns="http://www.w3.org/2000/svg" xmlns:xlink="http://www.w3.org/1999/xlink">
    <!-- Generator: Sketch 50.2 (55047) - http://www.bohemiancoding.com/sketch -->
    <title>Shape</title>
    <desc>Created with Sketch.</desc>
    <defs></defs>
    <g id="Risk-Assessment-Process" stroke="none" stroke-width="1" fill="none" fill-rule="evenodd">
        <g id="00.2.-PTB-–-Info" transform="translate(-206.000000, -342.000000)" fill="#FFFFFF" fill-rule="nonzero">
            <g id="Group-3">
                <path d="M266.345688,356.417511 C270.969425,359.311227 274.211656,364.207999 274.801947,369.892041 C276.687633,370.771492 278.780482,371.277238 280.999376,371.277238 C289.099963,371.277238 295.665543,364.723711 295.665543,356.639242 C295.665543,348.553527 289.099963,342 280.999376,342 C272.976164,342.002491 266.46799,348.438925 266.345688,356.417511 Z M256.737551,386.391084 C264.838138,386.391084 271.403719,379.836312 271.403719,371.751843 C271.403719,363.667374 264.83689,357.113846 256.737551,357.113846 C248.638213,357.113846 242.068888,363.668619 242.068888,371.753088 C242.068888,379.837557 248.638213,386.391084 256.737551,386.391084 Z M262.958692,387.388875 L250.513915,387.388875 C240.159491,387.388875 231.73568,395.798467 231.73568,406.133881 L231.73568,421.32496 L231.774367,421.562885 L232.822663,421.890499 C242.704106,424.972313 251.288906,426 258.354923,426 C272.156246,426 280.155747,422.072368 280.648696,421.821986 L281.628354,421.327451 L281.733184,421.327451 L281.733184,406.133881 C281.736927,395.798467 273.313116,387.388875 262.958692,387.388875 Z M287.223013,372.276274 L274.874329,372.276274 C274.740796,377.207925 272.631723,381.648777 269.295894,384.842703 C278.499688,387.574481 285.233745,396.093693 285.233745,406.156303 L285.233745,410.837572 C297.426432,410.391618 304.452515,406.942328 304.915512,406.710631 L305.89517,406.21485 L306,406.21485 L306,391.018789 C306,380.68462 297.576189,372.276274 287.223013,372.276274 Z M231.00312,371.27973 C233.872208,371.27973 236.54162,370.443878 238.802945,369.020064 C239.521777,364.340041 242.035193,360.250471 245.625608,357.465128 C245.640584,357.191079 245.666791,356.91952 245.666791,356.642979 C245.666791,348.557264 239.099963,342.003737 231.00312,342.003737 C222.901285,342.003737 216.336952,348.557264 216.336952,356.642979 C216.336952,364.724957 222.901285,371.27973 231.00312,371.27973 Z M244.174217,384.842703 C240.854611,381.664971 238.753026,377.247787 238.599526,372.346032 C238.14152,372.312399 237.688506,372.276274 237.221765,372.276274 L224.778235,372.276274 C214.423811,372.276274 206,380.68462 206,391.018789 L206,406.212359 L206.038687,406.446547 L207.086984,406.776652 C215.014102,409.246838 222.088856,410.38539 228.23387,410.744146 L228.23387,406.156303 C228.236366,396.093693 234.967927,387.576973 244.174217,384.842703 Z" id="Shape"></path>
            </g>
        </g>
    </g>
</svg>