<?xml version="1.0" encoding="UTF-8"?>
<svg width="180px" height="180px" viewBox="0 0 180 180" version="1.1" xmlns="http://www.w3.org/2000/svg" xmlns:xlink="http://www.w3.org/1999/xlink">
    <!-- Generator: Sketch 50.2 (55047) - http://www.bohemiancoding.com/sketch -->
    <title>Group 19</title>
    <desc>Created with Sketch.</desc>
    <defs></defs>
    <g id="Risk-Assessment-Process" stroke="none" stroke-width="1" fill="none" fill-rule="evenodd">
        <g id="00.-Patient-–-Home" transform="translate(-422.000000, -1265.000000)">
            <g id="Group-19" transform="translate(422.000000, 1265.000000)">
                <circle id="Oval-2" fill="#905CB8" cx="90" cy="90" r="90"></circle>
                <path d="M98.0523524,71.469859 C101.42768,73.5712485 103.794509,77.1272374 104.225421,81.2549345 C105.601972,81.8935833 107.129752,82.2608515 108.749544,82.2608515 C114.662973,82.2608515 119.455847,77.5017425 119.455847,71.6308781 C119.455847,65.759109 114.662973,61 108.749544,61 C102.8926,61.0018092 98.1416323,65.6758857 98.0523524,71.469859 Z M91.0384126,93.2363828 C96.9518408,93.2363828 101.744715,88.4763691 101.744715,82.6055047 C101.744715,76.7346403 96.9509297,71.9755313 91.0384126,71.9755313 C85.1258954,71.9755313 80.3302883,76.7355449 80.3302883,82.6064093 C80.3302883,88.4772737 85.1258954,93.2363828 91.0384126,93.2363828 Z M95.5798453,93.9609687 L86.4951579,93.9609687 C78.9364283,93.9609687 72.7870461,100.067934 72.7870461,107.573414 L72.7870461,118.60503 L72.8152877,118.777809 L73.5805441,119.015719 C80.7939973,121.253704 87.060901,122 92.219094,122 C102.29406,122 108.133695,119.147791 108.493548,118.965966 L109.208698,118.606839 L109.285224,118.606839 L109.285224,107.573414 C109.287957,100.067934 103.138575,93.9609687 95.5798453,93.9609687 Z M113.292799,82.986342 L104.27826,82.986342 C104.180781,86.5676598 102.641158,89.7925645 100.206003,92.111963 C106.924772,94.0957543 111.840634,100.282325 111.840634,107.589696 L111.840634,110.989189 C120.741295,110.665342 125.870336,108.1605 126.208324,107.992244 L126.923474,107.632213 L127,107.632213 L127,96.5969777 C127,89.0924028 120.850618,82.986342 113.292799,82.986342 Z M72.2522775,82.2626607 C74.3467116,82.2626607 76.2953825,81.655673 77.94615,80.6217134 C78.4708973,77.2231252 80.3056908,74.2533181 82.9266941,72.2306289 C82.9376264,72.0316166 82.9567578,71.8344134 82.9567578,71.6335919 C82.9567578,65.7618228 78.1629727,61.0027138 72.2522775,61.0027138 C66.3379384,61.0027138 61.5459753,65.7618228 61.5459753,71.6335919 C61.5459753,77.5026471 66.3379384,82.2626607 72.2522775,82.2626607 Z M81.8671783,92.111963 C79.4438662,89.8043243 77.9097092,86.596607 77.7976538,83.0369997 C77.4633096,83.0125754 77.1326095,82.986342 76.7918882,82.986342 L67.7081118,82.986342 C60.1493823,82.986342 54,89.0924028 54,96.5969777 L54,107.630404 L54.0282416,107.800469 L54.7934981,108.040188 C60.5802945,109.834013 65.7448646,110.660819 70.2307251,110.921344 L70.2307251,107.589696 C70.2325471,100.282325 75.1465868,94.0975635 81.8671783,92.111963 Z" id="Shape" fill="#FFFFFF" fill-rule="nonzero"></path>
            </g>
        </g>
    </g>
</svg>