<?xml version="1.0" encoding="UTF-8"?>
<svg width="61px" height="50px" viewBox="0 0 61 50" version="1.1" xmlns="http://www.w3.org/2000/svg" xmlns:xlink="http://www.w3.org/1999/xlink">
    <!-- Generator: Sketch 50.2 (55047) - http://www.bohemiancoding.com/sketch -->
    <title>Shape</title>
    <desc>Created with Sketch.</desc>
    <defs></defs>
    <g id="Risk-Assessment-Process" stroke="none" stroke-width="1" fill="none" fill-rule="evenodd">
        <g id="00.2.-PTB-–-Info" transform="translate(-855.000000, -294.000000)" fill="#905CB8" fill-rule="nonzero">
            <g id="Group-16-Copy" transform="translate(798.000000, 294.000000)">
                <path d="M93.8108698,8.58185162 C96.6313491,10.304302 98.6091102,13.2190471 98.9691876,16.6024054 C100.119456,17.1258879 101.396094,17.4269275 102.749619,17.4269275 C107.690977,17.4269275 111.695982,13.5260184 111.695982,8.71383447 C111.695982,3.90090905 107.690977,0 102.749619,0 C97.8554599,0.00148295345 93.8854736,3.83269319 93.8108698,8.58185162 Z M87.9499064,26.4232646 C92.8912642,26.4232646 96.8962686,22.521614 96.8962686,17.7094301 C96.8962686,12.8972462 92.8905029,8.9963371 87.9499064,8.9963371 C83.0093099,8.9963371 79.0020217,12.8979876 79.0020217,17.7101716 C79.0020217,22.5223555 83.0093099,26.4232646 87.9499064,26.4232646 Z M91.7448022,27.0171874 L84.1534881,27.0171874 C77.8372894,27.0171874 72.6987645,32.0228968 72.6987645,38.1749292 L72.6987645,47.2172379 L72.7223637,47.3588599 L73.3618245,47.5538683 C79.3895046,49.3882817 84.6262324,50 88.9365032,50 C97.3553101,50 102.235006,47.6621239 102.535704,47.5130871 L103.133296,47.2187208 L103.197242,47.2187208 L103.197242,38.1749292 C103.199526,32.0228968 98.0610009,27.0171874 91.7448022,27.0171874 Z M106.546038,18.0215918 L99.0133408,18.0215918 C98.9318857,20.9570982 97.6453513,23.6004627 95.6104954,25.501609 C101.22481,27.1276675 105.332585,32.1986268 105.332585,38.1882758 L105.332585,40.9747453 C112.770124,40.7092966 117.056034,38.6561476 117.338462,38.5182329 L117.936054,38.2231252 L118,38.2231252 L118,29.1778506 C118,23.0265597 112.861475,18.0215918 106.546038,18.0215918 Z M72.2519032,17.4284104 C74.0020467,17.4284104 75.6303881,16.9308795 77.0097966,16.0833716 C77.448284,13.2976436 78.9814676,10.8633755 81.1716211,9.20543354 C81.1807563,9.04230866 81.1967428,8.88066674 81.1967428,8.7160589 C81.1967428,3.90313348 77.1909772,0.00222443018 72.2519032,0.00222443018 C67.3097841,0.00222443018 63.305541,3.90313348 63.305541,8.7160589 C63.305541,13.5267599 67.3097841,17.4284104 72.2519032,17.4284104 Z M80.2862723,25.501609 C78.2613129,23.6101019 76.9793461,20.9808254 76.8857107,18.0631145 C76.6063272,18.0430946 76.3299888,18.0215918 76.0452764,18.0215918 L68.4547236,18.0215918 C62.1385249,18.0215918 57,23.0265597 57,29.1778506 L57,38.2216422 L57.0235992,38.3610398 L57.66306,38.5575312 C62.4986023,40.0278795 66.8142019,40.7055893 70.5626607,40.9191345 L70.5626607,38.1882758 C70.5641832,32.1986268 74.6704355,27.1291504 80.2862723,25.501609 Z" id="Shape"></path>
            </g>
        </g>
    </g>
</svg>