<?xml version="1.0" encoding="UTF-8"?>
<svg width="100px" height="100px" viewBox="0 0 100 100" version="1.1" xmlns="http://www.w3.org/2000/svg" xmlns:xlink="http://www.w3.org/1999/xlink">
    <!-- Generator: Sketch 50.2 (55047) - http://www.bohemiancoding.com/sketch -->
    <title>Group 3</title>
    <desc>Created with Sketch.</desc>
    <defs></defs>
    <g id="Risk-Assessment-Process" stroke="none" stroke-width="1" fill="none" fill-rule="evenodd">
        <g id="09.-Patient-–-Consent-Video" transform="translate(-462.000000, -293.000000)">
            <g id="Group-12" transform="translate(100.000000, 148.000000)">
                <g id="Group-3" transform="translate(362.000000, 145.000000)">
                    <rect id="Rectangle" fill="#14B8A7" x="0" y="0" width="100" height="100" rx="50"></rect>
                    <path d="M55.7586642,39.4120784 L69.2919617,62.1130936 C69.7776628,62.9278181 69.3839242,63.9185152 68.4125219,64.3258775 C68.1394645,64.4403855 67.8383696,64.5 67.5330821,64.5 L40.4664871,64.5 C39.3804263,64.5 38.5,63.761578 38.5,62.8506882 C38.5,62.5946407 38.5710789,62.3421095 38.7076076,62.1130936 L52.2409051,39.4120784 C52.7266062,38.5973539 53.907822,38.2671215 54.8792244,38.6744838 C55.2597935,38.8340773 55.5683796,39.0928914 55.7586642,39.4120784 Z" id="Triangle" fill="#FFFFFF" transform="translate(54.000000, 51.500000) rotate(-270.000000) translate(-54.000000, -51.500000) "></path>
                </g>
            </g>
        </g>
    </g>
</svg>