<?xml version="1.0" encoding="UTF-8"?>
<svg width="57px" height="70px" viewBox="0 0 57 70" version="1.1" xmlns="http://www.w3.org/2000/svg" xmlns:xlink="http://www.w3.org/1999/xlink">
    <!-- Generator: Sketch 50.2 (55047) - http://www.bohemiancoding.com/sketch -->
    <title>Fill 74</title>
    <desc>Created with Sketch.</desc>
    <defs></defs>
    <g id="PTB-Process" stroke="none" stroke-width="1" fill="none" fill-rule="evenodd">
        <g id="00.-Patient-–-PTB-Info" transform="translate(-445.000000, -356.000000)" fill="#14B8A7">
            <g id="Group-18" transform="translate(300.000000, 319.000000)">
                <g id="Group-16" transform="translate(100.000000, 37.000000)">
                    <g id="Fill-74" transform="translate(45.000000, 0.000000)">
                        <path d="M38,19.0909091 L38,3.18181818 L53.8333333,19.0909091 L38,19.0909091 Z M28.3005,57.2727273 C28.3005,57.2727273 15.8333333,49.7445455 15.8333333,41.7677273 C15.8333333,34.1918182 25.9065,30.9081818 28.6995,40.8513636 C31.4956667,30.9081818 41.1666667,34.1918182 41.1666667,41.7677273 C41.1666667,50.3681818 29.3676667,56.6459091 28.3005,57.2727273 L28.3005,57.2727273 Z M42.4776667,0 L6.33333333,0 C2.8405,0 0,2.85727273 0,6.36363636 L0,63.6363636 C0,67.1459091 2.8405,70 6.33333333,70 L50.6666667,70 C54.1595,70 57,67.1459091 57,63.6363636 L57,14.5918182 L42.4776667,0 Z"></path>
                    </g>
                </g>
            </g>
        </g>
    </g>
</svg>