<?xml version="1.0" encoding="UTF-8"?>
<svg width="70px" height="57px" viewBox="0 0 70 57" version="1.1" xmlns="http://www.w3.org/2000/svg" xmlns:xlink="http://www.w3.org/1999/xlink">
    <!-- Generator: Sketch 50.2 (55047) - http://www.bohemiancoding.com/sketch -->
    <title>Shape</title>
    <desc>Created with Sketch.</desc>
    <defs></defs>
    <g id="PTB-Process" stroke="none" stroke-width="1" fill="none" fill-rule="evenodd">
        <g id="00.-Patient-–-PTB-Info" transform="translate(-796.000000, -363.000000)" fill="#14B8A7" fill-rule="nonzero">
            <g id="Group-18" transform="translate(657.000000, 319.000000)">
                <g id="Group-16" transform="translate(37.000000, 44.000000)">
                    <path d="M144.241982,9.78331084 C147.478597,11.7469043 149.748159,15.0697136 150.161363,18.9267421 C151.481343,19.5235122 152.946337,19.8666973 154.499563,19.8666973 C160.169974,19.8666973 164.76588,15.419661 164.76588,9.9337713 C164.76588,4.44703632 160.169974,0 154.499563,0 C148.883315,0.00169056693 144.327593,4.36927024 144.241982,9.78331084 Z M137.516286,30.1225216 C143.186697,30.1225216 147.782603,25.67464 147.782603,20.1887503 C147.782603,14.7028606 143.185823,10.2558243 137.516286,10.2558243 C131.846749,10.2558243 127.248222,14.7037059 127.248222,20.1895956 C127.248222,25.6754853 131.846749,30.1225216 137.516286,30.1225216 Z M141.871084,30.7995937 L133.15974,30.7995937 C125.911644,30.7995937 120.014976,36.5061024 120.014976,43.5194193 L120.014976,53.8276512 L120.042057,53.9891003 L120.775864,54.2114098 C127.692874,56.3026411 133.702234,57 138.648446,57 C148.309372,57 153.909023,54.3348212 154.254087,54.1649193 L154.939848,53.8293417 L155.013229,53.8293417 L155.013229,43.5194193 C155.015849,36.5061024 149.119181,30.7995937 141.871084,30.7995937 Z M158.856109,20.5446147 L150.21203,20.5446147 C150.118557,23.8910919 148.642206,26.9045275 146.307126,29.0718343 C152.749782,30.9255409 157.463622,36.7064345 157.463622,43.5346344 L157.463622,46.7112096 C165.998502,46.4085982 170.91676,44.0680082 171.240859,43.9107855 L171.926619,43.5743627 L172,43.5743627 L172,33.2627497 C172,26.2502781 166.103332,20.5446147 158.856109,20.5446147 Z M119.502184,19.8683879 C121.510545,19.8683879 123.379134,19.3012027 124.962062,18.3350437 C125.465244,15.1593137 127.224635,12.3842481 129.737926,10.4941942 C129.748409,10.3082319 129.766754,10.1239601 129.766754,9.93630715 C129.766754,4.44957217 125.169974,0.0025358504 119.502184,0.0025358504 C113.8309,0.0025358504 109.235867,4.44957217 109.235867,9.93630715 C109.235867,15.4205063 113.8309,19.8683879 119.502184,19.8683879 Z M128.721952,29.0718343 C126.398228,26.9155161 124.927118,23.918141 124.819668,20.5919505 C124.499064,20.5691279 124.181954,20.5446147 123.855235,20.5446147 L115.144765,20.5446147 C107.896668,20.5446147 102,26.2502781 102,33.2627497 L102,43.5726721 L102.027081,43.7315854 L102.760889,43.9555855 C108.309871,45.6317827 113.262199,46.4043717 117.563709,46.6478134 L117.563709,43.5346344 C117.565456,36.7064345 122.277549,30.9272315 128.721952,29.0718343 Z" id="Shape"></path>
                </g>
            </g>
        </g>
    </g>
</svg>