<?xml version="1.0" encoding="UTF-8"?>
<svg width="50px" height="50px" viewBox="0 0 50 50" version="1.1" xmlns="http://www.w3.org/2000/svg" xmlns:xlink="http://www.w3.org/1999/xlink">
    <!-- Generator: Sketch 50.2 (55047) - http://www.bohemiancoding.com/sketch -->
    <title>Fill 1903</title>
    <desc>Created with Sketch.</desc>
    <defs></defs>
    <g id="PTB-Process" stroke="none" stroke-width="1" fill="none" fill-rule="evenodd">
        <g id="07.-Expert-–-PTB-–-Confirm-save" transform="translate(-487.000000, -304.000000)" fill="#14B8A7">
            <g id="Group-6" transform="translate(215.000000, 201.000000)">
                <g id="Fill-1903" transform="translate(272.000000, 103.000000)">
                    <path d="M25,38.125 C23.275,38.125 21.875,36.725 21.875,35 C21.875,33.275 23.275,31.875 25,31.875 C26.725,31.875 28.125,33.275 28.125,35 C28.125,36.725 26.725,38.125 25,38.125 L25,38.125 Z M22.5,10 L27.5,10 L27.5,27.5 L22.5,27.5 L22.5,10 Z M25,0 C11.215,0 0,11.215 0,25 C0,38.7875 11.215,50 25,50 C38.785,50 50,38.7875 50,25 C50,11.215 38.785,0 25,0 L25,0 Z"></path>
                </g>
            </g>
        </g>
    </g>
</svg>