<?xml version="1.0" encoding="UTF-8"?>
<svg width="70px" height="70px" viewBox="0 0 70 70" version="1.1" xmlns="http://www.w3.org/2000/svg" xmlns:xlink="http://www.w3.org/1999/xlink">
    <!-- Generator: Sketch 50.2 (55047) - http://www.bohemiancoding.com/sketch -->
    <title>Fill 496</title>
    <desc>Created with Sketch.</desc>
    <defs></defs>
    <g id="Advocacy-Process" stroke="none" stroke-width="1" fill="none" fill-rule="evenodd">
        <g id="00.1.-Patient-–-Advocacy-–-Info" transform="translate(-796.000000, -567.000000)" fill="#14B8A7">
            <g id="Group-18" transform="translate(657.000000, 523.000000)">
                <g id="Group-16" transform="translate(89.000000, 44.000000)">
                    <g id="Fill-496" transform="translate(50.000000, 0.000000)">
                        <path d="M35,0 C54.299,0 70,15.701 70,35 C70,54.299 54.299,70 35,70 C15.701,70 0,54.299 0,35 C0,15.701 15.701,0 35,0 Z M34.79525,48 C35.8905,47.3628038 48,40.9811379 48,32.238288 C48,24.5369467 38.0745,21.198944 35.20475,31.3067524 C32.33825,21.198944 22,24.5369467 22,32.238288 C22,40.3471762 34.79525,48 34.79525,48 Z" id="Combined-Shape"></path>
                    </g>
                </g>
            </g>
        </g>
    </g>
</svg>