<?xml version="1.0" encoding="UTF-8"?>
<svg width="70px" height="70px" viewBox="0 0 70 70" version="1.1" xmlns="http://www.w3.org/2000/svg" xmlns:xlink="http://www.w3.org/1999/xlink">
    <!-- Generator: Sketch 50.2 (55047) - http://www.bohemiancoding.com/sketch -->
    <title>Group 14</title>
    <desc>Created with Sketch.</desc>
    <defs></defs>
    <g id="Risk-Assessment-Process" stroke="none" stroke-width="1" fill="none" fill-rule="evenodd">
        <g id="03.-Patient-–-Risk-Assessment-Info" transform="translate(-618.000000, -305.000000)" fill="#14B8A7">
            <g id="Group-9" transform="translate(538.000000, 268.000000)">
                <g id="Group-16" transform="translate(65.000000, 37.000000)">
                    <g id="Group-14" transform="translate(15.000000, 0.000000)">
                        <path d="M37.7043068,32.2970772 C37.3773302,29.2191652 37.4523248,26.1412531 37.9982858,23.1473386 L46.8506535,32.0030856 C43.8598672,32.5460701 40.782087,32.621068 37.7043068,32.2970772 L37.7043068,32.2970772 Z M11.0872081,42.9077741 C12.8420827,41.7378075 14.6869509,40.7478358 16.6188129,39.9528585 L30.0488537,53.3834748 C29.2539104,55.3154196 28.2609814,57.1603668 27.0940647,58.9153167 L11.0872081,42.9077741 Z M32.2956932,37.7059227 C32.6226698,40.7838347 32.5476752,43.8617468 32.0047139,46.8556613 L23.1463467,37.9969144 C26.1401328,37.4539299 29.217913,37.378932 32.2956932,37.7059227 L32.2956932,37.7059227 Z M58.9097922,27.0952259 C57.1579173,28.2591926 55.3130491,29.2521642 53.3781873,30.0501414 L39.9511463,16.6165252 C40.7490894,14.6875804 41.7390186,12.8426331 42.9059353,11.0906831 L58.9097922,27.0952259 Z M65.758303,21.2153938 L63.853439,23.1143396 C63.7814442,23.1893374 63.6974502,23.2463358 63.6224555,23.3213337 L46.6796657,6.37781778 C46.7516606,6.30281992 46.8116563,6.21882232 46.886651,6.14382446 L48.7855153,4.2418788 L44.5438183,0 L42.6419541,1.90194566 C34.7825155,9.76472101 30.8167988,20.6334105 31.5967431,31.6010971 C20.6325262,30.8241193 9.76130276,34.7840062 1.90186415,42.6437816 L0,44.5487272 L4.24169702,48.790606 L6.14356117,46.8856604 C6.21855582,46.8136625 6.30254982,46.7536642 6.37754446,46.6816662 L23.3203343,63.6251821 C23.2483394,63.70018 23.1883437,63.7841776 23.113349,63.8591755 L21.2114849,65.7581212 L25.4561817,70 L27.3550461,68.1010543 C35.2174845,60.2382789 39.1802014,49.3695894 38.4032569,38.4049027 C49.3734733,39.1878803 60.2356975,35.2219937 68.0951361,27.3592183 L70,25.4572726 L65.758303,21.2153938 Z" id="Fill-4371"></path>
                    </g>
                </g>
            </g>
        </g>
    </g>
</svg>