<?xml version="1.0" encoding="UTF-8"?>
<svg width="20px" height="20px" viewBox="0 0 20 20" version="1.1" xmlns="http://www.w3.org/2000/svg" xmlns:xlink="http://www.w3.org/1999/xlink">
    <!-- Generator: Sketch 50.2 (55047) - http://www.bohemiancoding.com/sketch -->
    <title>Fill 894</title>
    <desc>Created with Sketch.</desc>
    <defs></defs>
    <g id="Risk-Assessment-Process" stroke="none" stroke-width="1" fill="none" fill-rule="evenodd">
        <g id="17.-Message-filters" transform="translate(-964.000000, -101.000000)" fill="#14B8A7">
            <g id="Group-2" transform="translate(80.000000, 86.000000)">
                <g id="Fill-894" transform="translate(894.000000, 25.000000) scale(-1, 1) translate(-894.000000, -25.000000) translate(884.000000, 15.000000)">
                    <path d="M10,0 C7.285,0 4.78,1.089 2.938,2.938 L1,1 L1,7 L7,7 L4.351,4.351 C5.824,2.871 7.828,2 10,2 C14.411,2 18,5.589 18,10 C18,14.411 14.411,18 10,18 C5.589,18 2,14.411 2,10 L0,10 C0,15.514 4.486,20 10,20 C15.514,20 20,15.514 20,10 C20,4.486 15.514,0 10,0"></path>
                </g>
            </g>
        </g>
    </g>
</svg>