<?xml version="1.0" encoding="UTF-8"?>
<svg width="20px" height="20px" viewBox="0 0 20 20" version="1.1" xmlns="http://www.w3.org/2000/svg" xmlns:xlink="http://www.w3.org/1999/xlink">
    <!-- Generator: Sketch 50.2 (55047) - http://www.bohemiancoding.com/sketch -->
    <title>Fill 1904</title>
    <desc>Created with Sketch.</desc>
    <defs></defs>
    <g id="PTB-Process" stroke="none" stroke-width="1" fill="none" fill-rule="evenodd">
        <g id="05.-Expert-–-PTB-–-PTB-Landing" transform="translate(-964.000000, -367.000000)" fill="#FF8510">
            <g id="Group-10" transform="translate(301.000000, 222.000000)">
                <g id="Group-9" transform="translate(0.000000, 118.000000)">
                    <g id="Fill-1904" transform="translate(663.000000, 27.000000)">
                        <path d="M11,11.874 L11,13 L9,13 L9,10 L10,10 C11.103,10 12,9.103 12,8 C12,6.896 11.103,6 10,6 C8.897,6 8,6.896 8,8 L6,8 C6,5.794 7.794,4 10,4 C12.206,4 14,5.794 14,8 C14,9.86 12.723,11.428 11,11.874 M10,16.25 C9.31,16.25 8.75,15.69 8.75,15 C8.75,14.31 9.31,13.75 10,13.75 C10.69,13.75 11.25,14.31 11.25,15 C11.25,15.69 10.69,16.25 10,16.25 M10,0 C4.486,0 0,4.486 0,10 C0,15.515 4.486,20 10,20 C15.514,20 20,15.515 20,10 C20,4.486 15.514,0 10,0"></path>
                    </g>
                </g>
            </g>
        </g>
    </g>
</svg>