<?xml version="1.0" encoding="UTF-8"?>
<svg width="50px" height="33px" viewBox="0 0 50 33" version="1.1" xmlns="http://www.w3.org/2000/svg" xmlns:xlink="http://www.w3.org/1999/xlink">
    <!-- Generator: Sketch 50.2 (55047) - http://www.bohemiancoding.com/sketch -->
    <title>upload-to-cloud-button</title>
    <desc>Created with Sketch.</desc>
    <defs></defs>
    <g id="Risk-Assessment-Process" stroke="none" stroke-width="1" fill="none" fill-rule="evenodd">
        <g id="20.-Patient-–-PTB-–-Add-Record" transform="translate(-488.000000, -366.000000)" fill="#D1D1D1" fill-rule="nonzero">
            <g id="Group-6" transform="translate(258.000000, 210.000000)">
                <g id="Group-39">
                    <g id="Group-2" transform="translate(20.000000, 83.000000)">
                        <g id="Group" transform="translate(199.000000, 73.000000)">
                            <g id="upload-to-cloud-button" transform="translate(11.000000, 0.000000)">
                                <path d="M40.4166667,12.375 C38.9583333,5.3625 32.7083333,0 25,0 C18.9583333,0 13.75,3.3 11.25,8.25 C4.79166667,9.075 0,14.23125 0,20.625 C0,27.43125 5.625,33 12.5,33 L39.5833333,33 C45.4166667,33 50,28.4625 50,22.6875 C50,17.325 45.625,12.7875 40.4166667,12.375 Z M28.4166667,18.376875 L28.4166667,25.141875 L21.5833333,25.141875 L21.5833333,18.376875 L16.4583333,18.376875 L25,9.920625 L33.5416667,18.376875 L28.4166667,18.376875 Z" id="Shape"></path>
                            </g>
                        </g>
                    </g>
                </g>
            </g>
        </g>
    </g>
</svg>