<?xml version="1.0" encoding="UTF-8"?>
<svg width="80px" height="59px" viewBox="0 0 80 59" version="1.1" xmlns="http://www.w3.org/2000/svg" xmlns:xlink="http://www.w3.org/1999/xlink">
    <!-- Generator: Sketch 50.2 (55047) - http://www.bohemiancoding.com/sketch -->
    <title>Group</title>
    <desc>Created with Sketch.</desc>
    <defs></defs>
    <g id="Risk-Assessment-Process" stroke="none" stroke-width="1" fill="none" fill-rule="evenodd">
        <g id="00.-Patient-–-Home" transform="translate(-472.000000, -4587.000000)" fill="#14B8A7">
            <g id="Group" transform="translate(472.000000, 4587.000000)">
                <path d="M48,5.75 C48,2.576 45.312,0 42,0 C38.688,0 36,2.576 36,5.75 C36,11.5 48,23 48,23 C48,23 60,11.5 60,5.75 C60,2.576 57.312,0 54,0 C50.688,0 48,2.576 48,5.75" id="Fill-978"></path>
                <path d="M77.788,35.4200173 L69.788,31.4200091 C69.06,31.0560083 68.244,30.9240081 67.432,31.0400083 L44,34.3880152 L44,31.0000082 C44,28.7880037 42.208,27 40,27 L20,27 L20,55.0520576 L43.34,58.9440656 C44.128,59.0800659 45,58.9720657 45.788,58.5760649 L77.788,42.576032 C79.144,41.9000306 80,40.5120278 80,39.0000246 C80,37.4840215 79.144,36.0960187 77.788,35.4200173" id="Fill-979"></path>
                <path d="M12,23 L4,23 C1.792,23 0,24.792 0,27 L0,55 C0,57.208 1.792,59 4,59 L12,59 C14.208,59 16,57.208 16,55 L16,27 C16,24.792 14.208,23 12,23" id="Fill-980"></path>
            </g>
        </g>
    </g>
</svg>