<?xml version="1.0" encoding="UTF-8"?>
<svg width="50px" height="50px" viewBox="0 0 50 50" version="1.1" xmlns="http://www.w3.org/2000/svg" xmlns:xlink="http://www.w3.org/1999/xlink">
    <!-- Generator: Sketch 50.2 (55047) - http://www.bohemiancoding.com/sketch -->
    <title>Fill 332 + Fill 333 + Fill 334</title>
    <desc>Created with Sketch.</desc>
    <defs></defs>
    <g id="Risk-Assessment-Process" stroke="none" stroke-width="1" fill="none" fill-rule="evenodd">
        <g id="00.1.-Risk-assessment-–-Info" transform="translate(-898.000000, -243.000000)" fill="#1465B8">
            <g id="Group-16" transform="translate(856.000000, 243.000000)">
                <g id="Fill-332-+-Fill-333-+-Fill-334" transform="translate(42.000000, 0.000000)">
                    <path d="M48.7176617,10.4360259 C48.0659204,9.96856351 47.2325871,9.84423842 46.4763682,10.0953751 C44.5037313,10.7542981 42.9813433,11.0725703 41.8271144,11.0725703 C40.8818408,11.0725703 37.3843284,9.96856351 34.8271144,9.96856351 C32.9390547,9.96856351 31.2798507,10.4086743 29.85199,11.1471654 L29.85199,26.6853154 C31.2325871,27.1254263 32.869403,27.3740764 34.8271144,27.3740764 C43.8893035,27.3740764 49.7524876,16.2892512 49.7524876,12.4550654 C49.7524876,11.6544118 49.3669154,10.9034882 48.7176617,10.4360259" id="Fill-332"></path>
                    <path d="M19.9004975,26.6855641 L19.9004975,11.1449275 C18.4726368,10.408923 16.8109453,9.96632566 14.9253731,9.96632566 C12.3706468,9.96632566 8.8681592,11.072819 7.92288557,11.072819 C6.76865672,11.072819 5.24875622,10.7545467 3.27363184,10.0956238 C2.51492537,9.84448707 1.68159204,9.96632566 1.03482587,10.4362745 C0.383084577,10.9037369 0,11.6546604 0,12.4528275 C0,16.2894999 5.86318408,27.3718386 14.9253731,27.3718386 C16.8830846,27.3718386 18.5174129,27.1256749 19.9004975,26.6855641" id="Fill-333"></path>
                    <path d="M27.3631841,9.2778133 C28.8432836,8.41499716 29.8507463,6.83109548 29.8507463,4.99357062 C29.8507463,2.24847258 27.6218905,0.0205669224 24.8756219,0.0205669224 C22.1293532,0.0205669224 19.9004975,2.24847258 19.9004975,4.99357062 C19.9004975,6.83109548 20.9079602,8.41499716 22.3880597,9.2778133 L22.3880597,29.8585891 L14.9253731,29.8585891 L14.9253731,34.8315928 L22.3880597,34.8315928 L22.3880597,39.8045965 L17.4129353,39.8045965 L17.4129353,44.7776002 L22.3880597,44.7776002 L22.3880597,49.7530904 L27.3631841,49.7530904 L27.3631841,44.7776002 L32.3383085,44.7776002 L32.3383085,39.8045965 L27.3631841,39.8045965 L27.3631841,34.8315928 L34.8258706,34.8315928 L34.8258706,29.8585891 L27.3631841,29.8585891 L27.3631841,9.2778133 Z" id="Fill-334"></path>
                </g>
            </g>
        </g>
    </g>
</svg>