<?xml version="1.0" encoding="UTF-8"?>
<svg width="41px" height="50px" viewBox="0 0 41 50" version="1.1" xmlns="http://www.w3.org/2000/svg" xmlns:xlink="http://www.w3.org/1999/xlink">
    <!-- Generator: Sketch 50.2 (55047) - http://www.bohemiancoding.com/sketch -->
    <title>Fill 350 + Fill 351 + Fill 352</title>
    <desc>Created with Sketch.</desc>
    <defs></defs>
    <g id="Risk-Assessment-Process" stroke="none" stroke-width="1" fill="none" fill-rule="evenodd">
        <g id="00.1.-Risk-assessment-–-Info" transform="translate(-594.000000, -243.000000)" fill="#1465B8">
            <g id="Group-16" transform="translate(546.000000, 243.000000)">
                <g id="Fill-350-+-Fill-351-+-Fill-352" transform="translate(48.000000, 0.000000)">
                    <path d="M36.9,6.33802817 L32.8,6.33802817 L32.8,12.5 L34.85,12.5 L34.85,43.3098592 L6.15,43.3098592 L6.15,12.5 L8.2,12.5 L8.2,6.33802817 L4.1,6.33802817 C1.83885,6.33802817 0,8.18045775 0,10.4460094 L0,45.3638498 C0,47.6294014 1.83885,49.471831 4.1,49.471831 L36.9,49.471831 C39.16115,49.471831 41,47.6294014 41,45.3638498 L41,10.4460094 C41,8.18045775 39.16115,6.33802817 36.9,6.33802817" id="Fill-350"></path>
                    <path d="M23.78,21.3615023 C21.96944,21.3615023 20.5,23.0046948 20.5,24.6478873 C20.5,23.0046948 19.03056,21.3615023 17.22,21.3615023 C15.40944,21.3615023 13.94,22.8321596 13.94,24.6478873 C13.94,29.5774648 20.5,34.5070423 20.5,34.5070423 C20.5,34.5070423 27.06,29.5774648 27.06,24.6478873 C27.06,22.8321596 25.59056,21.3615023 23.78,21.3615023" id="Fill-3960"></path>
                    <path d="M12.3,14.3779343 L28.7,14.3779343 C29.8316,14.3779343 30.75,13.4577465 30.75,12.3239437 L30.75,6.16197183 C30.75,5.02816901 29.8316,4.10798122 28.7,4.10798122 L26.29945,4.10798122 C25.4528,1.71713615 23.1732,0 20.5,0 C17.8268,0 15.5472,1.71713615 14.70055,4.10798122 L12.3,4.10798122 C11.1684,4.10798122 10.25,5.02816901 10.25,6.16197183 L10.25,12.3239437 C10.25,13.4577465 11.1684,14.3779343 12.3,14.3779343" id="Fill-351"></path>
                </g>
            </g>
        </g>
    </g>
</svg>