<?xml version="1.0" encoding="UTF-8"?>
<svg width="100px" height="100px" viewBox="0 0 100 100" version="1.1" xmlns="http://www.w3.org/2000/svg" xmlns:xlink="http://www.w3.org/1999/xlink">
    <!-- Generator: Sketch 50.2 (55047) - http://www.bohemiancoding.com/sketch -->
    <title>Fill 4371</title>
    <desc>Created with Sketch.</desc>
    <defs></defs>
    <g id="Risk-Assessment-Process" stroke="none" stroke-width="1" fill="none" fill-rule="evenodd">
        <g id="00.1.-Risk-assessment-–-Info" transform="translate(-206.000000, -334.000000)" fill="#FFFFFF">
            <g id="Group-3">
                <g id="Fill-4371" transform="translate(206.000000, 334.000000)">
                    <path d="M53.8633451,45.9734407 C53.396385,41.5957219 53.5034859,37.2180032 54.2831808,32.9597543 L66.9253756,45.555296 C62.6541901,46.3275836 58.2587676,46.4342532 53.8633451,45.9734407 L53.8633451,45.9734407 Z M15.8510798,61.0650501 C18.3572418,59.4010049 20.9919249,57.9929667 23.7508451,56.8622694 L42.9304812,75.9646542 C41.7952113,78.7124621 40.3771948,81.3365333 38.7107042,83.832601 L15.8510798,61.0650501 Z M46.1392254,53.6664494 C46.6061854,58.0441681 46.4990845,62.4218869 45.7236737,66.6801357 L33.0729108,54.0803273 C37.3483803,53.3080396 41.7438028,53.2013701 46.1392254,53.6664494 L46.1392254,53.6664494 Z M84.1472066,38.57484 C81.6453286,40.2303516 79.0106455,41.6426565 76.2474413,42.7776207 L57.0720892,23.670969 C58.2116432,20.927428 59.6253756,18.3033568 61.2918662,15.8115558 L84.1472066,38.57484 Z M93.9276643,30.2119465 L91.2073005,32.9128197 C91.1044836,33.0194893 90.9845305,33.1005582 90.8774296,33.2072277 L66.6811854,9.10844068 C66.7840023,9.00177112 66.8696831,8.88230122 66.976784,8.77563166 L69.6885798,6.07049161 L63.6309507,0.0372612847 L60.9148709,2.74240133 C49.6906925,13.925638 44.0271948,29.3841907 45.1410446,44.9835472 C29.4828873,43.8784505 13.9575352,49.5106033 2.73335681,60.6895732 L0.0172769953,63.39898 L6.0749061,69.4322104 L8.79098592,66.7228035 C8.89808685,66.6204008 9.01803991,66.5350651 9.12514085,66.4326623 L33.321385,90.5314494 C33.2185681,90.6381189 33.1328873,90.7575888 33.0257864,90.8642584 L30.3097066,93.5651317 L36.3716197,99.598362 L39.0834155,96.8974887 C50.3118779,85.714252 55.9710915,70.2556994 54.8615258,54.6606097 C70.5282512,55.7742399 86.0407512,50.1335535 97.2649296,38.9503168 L99.9852934,36.2451768 L93.9276643,30.2119465 Z"></path>
                </g>
            </g>
        </g>
    </g>
</svg>