<?xml version="1.0" encoding="UTF-8"?>
<svg width="50px" height="50px" viewBox="0 0 50 50" version="1.1" xmlns="http://www.w3.org/2000/svg" xmlns:xlink="http://www.w3.org/1999/xlink">
    <!-- Generator: Sketch 50.2 (55047) - http://www.bohemiancoding.com/sketch -->
    <title>Group 14</title>
    <desc>Created with Sketch.</desc>
    <defs></defs>
    <g id="Risk-Assessment-Process" stroke="none" stroke-width="1" fill="none" fill-rule="evenodd">
        <g id="00.1.-Risk-assessment-–-Info" transform="translate(-744.000000, -243.000000)" fill="#1465B8">
            <g id="Group-16" transform="translate(719.000000, 243.000000)">
                <g id="Group-14" transform="translate(25.000000, 0.000000)">
                    <path d="M26.9316477,23.0693409 C26.698093,20.8708323 26.7516606,18.6723236 27.1416327,16.5338133 L33.4647525,22.8593469 C31.3284765,23.2471929 29.1300621,23.3007628 26.9316477,23.0693409 L26.9316477,23.0693409 Z M7.91943433,30.64841 C9.17291622,29.8127196 10.4906792,29.105597 11.8705807,28.5377561 L21.4634669,38.1310534 C20.8956503,39.511014 20.1864153,40.8288335 19.3529034,42.0823691 L7.91943433,30.64841 Z M23.0683523,26.9328019 C23.301907,29.1313105 23.2483394,31.3298191 22.86051,33.4683295 L16.5331048,27.1406531 C18.6715235,26.7528071 20.8699379,26.6992372 23.0683523,26.9328019 L23.0683523,26.9328019 Z M42.078423,19.3537328 C40.8270838,20.1851376 39.5093208,20.894403 38.1272766,21.4643867 L28.5365331,11.8689466 C29.1064924,10.4911288 29.8135847,9.17330933 30.6470966,7.92191652 L42.078423,19.3537328 Z M46.9702164,15.1538527 L45.6095993,16.5102426 C45.5581744,16.5638125 45.4981787,16.6045256 45.4446111,16.6580955 L33.3426184,4.55558413 C33.3940433,4.50201423 33.4368974,4.44201594 33.490465,4.38844604 L34.8467967,3.02991343 L31.8170131,0 L30.4585387,1.35853261 C24.844654,6.97480072 22.0119991,14.7381503 22.5691022,22.5722122 C14.7375187,22.0172281 6.97235912,24.8457187 1.35847439,30.459844 L0,31.8205194 L3.02978359,34.8504328 L4.38825798,33.4897574 C4.44182558,33.4383303 4.5018213,33.3954744 4.5553889,33.3440473 L16.6573816,45.4465587 C16.6059567,45.5001286 16.5631026,45.5601269 16.509535,45.6136968 L15.1510606,46.9700866 L18.1829869,50 L19.5393186,48.6436102 C25.155346,43.0273421 27.9858582,35.2639925 27.4308978,27.4320734 C35.2667667,27.9913431 43.0254982,25.1585669 48.6393829,19.5422988 L50,18.1837662 L46.9702164,15.1538527 Z" id="Fill-4371"></path>
                </g>
            </g>
        </g>
    </g>
</svg>