<?xml version="1.0" encoding="UTF-8"?>
<svg width="30px" height="30px" viewBox="0 0 30 30" version="1.1" xmlns="http://www.w3.org/2000/svg" xmlns:xlink="http://www.w3.org/1999/xlink">
    <!-- Generator: Sketch 50.2 (55047) - http://www.bohemiancoding.com/sketch -->
    <title>Group 11</title>
    <desc>Created with Sketch.</desc>
    <defs></defs>
    <g id="Risk-Assessment-Process" stroke="none" stroke-width="1" fill="none" fill-rule="evenodd">
        <g id="00.-Advocate-–-Dashboard-added-patient" transform="translate(-76.000000, -230.000000)">
            <g id="Group-4" transform="translate(60.000000, 0.000000)">
                <g id="Group-20" transform="translate(16.000000, 230.000000)">
                    <g id="Group-2">
                        <g id="Public-health-record">
                            <g id="Group-11">
                                <circle id="Oval-2" fill="#14B8A7" cx="15" cy="15" r="15"></circle>
                                <g id="Fill-2991" transform="translate(7.000000, 7.000000)" fill="#FFFFFF">
                                    <path d="M13.8181818,8.57142857 L10.9090909,8.57142857 L10.9090909,5.71428571 L13.8181818,5.71428571 L13.8181818,8.57142857 Z M9.45454545,8.57142857 L6.54545455,8.57142857 L6.54545455,5.71428571 L9.45454545,5.71428571 L9.45454545,8.57142857 Z M9.45454545,12.8571429 L6.54545455,12.8571429 L6.54545455,10 L9.45454545,10 L9.45454545,12.8571429 Z M5.09090909,8.57142857 L2.18181818,8.57142857 L2.18181818,5.71428571 L5.09090909,5.71428571 L5.09090909,8.57142857 Z M5.09090909,12.8571429 L2.18181818,12.8571429 L2.18181818,10 L5.09090909,10 L5.09090909,12.8571429 Z M14.5454545,1.42857143 L13.0909091,1.42857143 L13.0909091,0 L11.6363636,0 L11.6363636,3.57142857 L10.1818182,3.57142857 L10.1818182,1.42857143 L5.81818182,1.42857143 L5.81818182,0 L4.36363636,0 L4.36363636,3.57142857 L2.90909091,3.57142857 L2.90909091,1.42857143 L1.45454545,1.42857143 C0.652363636,1.42857143 0,2.07 0,2.85714286 L0,13.5714286 C0,14.3592857 0.652363636,15 1.45454545,15 L14.5454545,15 C15.3476364,15 16,14.3592857 16,13.5714286 L16,2.85714286 C16,2.07 15.3476364,1.42857143 14.5454545,1.42857143 L14.5454545,1.42857143 Z"></path>
                                </g>
                            </g>
                        </g>
                    </g>
                </g>
            </g>
        </g>
    </g>
</svg>