<?xml version="1.0" encoding="UTF-8"?>
<svg width="30px" height="30px" viewBox="0 0 30 30" version="1.1" xmlns="http://www.w3.org/2000/svg" xmlns:xlink="http://www.w3.org/1999/xlink">
    <!-- Generator: Sketch 50.2 (55047) - http://www.bohemiancoding.com/sketch -->
    <title>Group 22</title>
    <desc>Created with Sketch.</desc>
    <defs></defs>
    <g id="Risk-Assessment-Process" stroke="none" stroke-width="1" fill="none" fill-rule="evenodd">
        <g id="XX1.-Patient-–-PHR" transform="translate(-76.000000, -473.000000)">
            <g id="Group-4" transform="translate(60.000000, 0.000000)">
                <g id="Group-6" transform="translate(16.000000, 364.000000)">
                    <g id="Group-7" transform="translate(0.000000, 106.000000)">
                        <g id="Group-5">
                            <g id="Group-22" transform="translate(0.000000, 3.000000)">
                                <circle id="Oval-2" fill="#D66D75" cx="15" cy="15" r="15"></circle>
                                <g id="Group" transform="translate(7.000000, 9.000000)" fill="#FFFFFF">
                                    <path d="M9.59424058,1.17427184 C9.59424058,0.526073786 9.06529507,0 8.41355864,0 C7.76182222,0 7.23287671,0.526073786 7.23287671,1.17427184 C7.23287671,2.34854369 9.59424058,4.69708738 9.59424058,4.69708738 C9.59424058,4.69708738 11.9556044,2.34854369 11.9556044,1.17427184 C11.9556044,0.526073786 11.4266589,0 10.7749225,0 C10.1231861,0 9.59424058,0.526073786 9.59424058,1.17427184" id="Fill-978"></path>
                                    <path d="M15.3722177,7.21350192 L13.7902959,6.42587895 C13.646341,6.35420525 13.4849849,6.3282137 13.3244199,6.35105476 L8.6909709,7.01029519 L8.6909709,6.34317853 C8.6909709,5.90762303 8.33662042,5.55555556 7.90001,5.55555556 L3.94520548,5.55555556 L3.94520548,11.0791555 L8.56046235,11.8455126 C8.71628165,11.8722918 8.88871113,11.851026 9.04453043,11.7730513 L15.3722177,8.62255943 C15.6403534,8.48945114 15.809619,8.21614597 15.809619,7.91842449 C15.809619,7.61991538 15.6403534,7.34661021 15.3722177,7.21350192" id="Fill-979"></path>
                                    <path d="M2.33256674,4.66666667 L0.777522248,4.66666667 C0.348329967,4.66666667 0,5.02023387 0,5.45587918 L0,10.9803668 C0,11.4160121 0.348329967,11.7695793 0.777522248,11.7695793 L2.33256674,11.7695793 C2.76175902,11.7695793 3.11008899,11.4160121 3.11008899,10.9803668 L3.11008899,5.45587918 C3.11008899,5.02023387 2.76175902,4.66666667 2.33256674,4.66666667" id="Fill-980"></path>
                                </g>
                            </g>
                        </g>
                    </g>
                </g>
            </g>
        </g>
    </g>
</svg>