<?xml version="1.0" encoding="UTF-8"?>
<svg width="30px" height="30px" viewBox="0 0 30 30" version="1.1" xmlns="http://www.w3.org/2000/svg" xmlns:xlink="http://www.w3.org/1999/xlink">
    <!-- Generator: Sketch 50.2 (55047) - http://www.bohemiancoding.com/sketch -->
    <title>Group 19</title>
    <desc>Created with Sketch.</desc>
    <defs></defs>
    <g id="Risk-Assessment-Process" stroke="none" stroke-width="1" fill="none" fill-rule="evenodd">
        <g id="XX1.-Patient-–-PHR" transform="translate(-76.000000, -528.000000)">
            <g id="Group-4" transform="translate(60.000000, 0.000000)">
                <g id="Group-6" transform="translate(16.000000, 364.000000)">
                    <g id="Group-7" transform="translate(0.000000, 161.000000)">
                        <g id="Group-19" transform="translate(0.000000, 3.000000)">
                            <circle id="Oval-2" fill="#905CB8" cx="15" cy="15" r="15"></circle>
                            <path d="M16.6553101,11.2312814 C17.3951079,11.6791185 17.913865,12.4369522 18.0083115,13.3166254 C18.3100212,13.4527309 18.6448771,13.5310011 18.9999002,13.5310011 C20.295994,13.5310011 21.346487,12.5167648 21.346487,11.265597 C21.346487,10.0142364 20.295994,9 18.9999002,9 C17.7161862,9.00038557 16.6748783,9.99650023 16.6553101,11.2312814 Z M15.1180082,15.8700488 C16.4141021,15.8700488 17.464595,14.8556197 17.464595,13.6044518 C17.464595,12.353284 16.4139024,11.3390476 15.1180082,11.3390476 C13.8221141,11.3390476 12.7710221,12.3534768 12.7710221,13.6046446 C12.7710221,14.8558124 13.8221141,15.8700488 15.1180082,15.8700488 Z M16.1133907,16.0244687 L14.1222264,16.0244687 C12.4655185,16.0244687 11.1177087,17.3259532 11.1177087,18.9254816 L11.1177087,21.2764818 L11.1238987,21.3133036 L11.2916261,21.3640058 C12.8726569,21.8409532 14.2462249,22 15.3767877,22 C17.5849994,22 18.8649195,21.3921522 18.9437913,21.3534026 L19.1005366,21.2768674 L19.1173094,21.2768674 L19.1173094,18.9254816 C19.1179084,17.3259532 17.7700986,16.0244687 16.1133907,16.0244687 Z M19.995682,13.6856139 L18.0198927,13.6856139 C17.9985274,14.4488455 17.6610758,15.1361203 17.1273431,15.6304183 C18.5999501,16.0531935 19.6773992,17.371643 19.6773992,18.9289517 L19.6773992,19.6534338 C21.6282291,19.5844171 22.7524023,19.0505984 22.826482,19.0147406 L22.9832273,18.9380125 L23,18.9380125 L23,16.5862412 C23,14.9869055 21.6521902,13.6856139 19.995682,13.6856139 Z M11.0004992,13.5313867 C11.4595532,13.5313867 11.8866592,13.4020287 12.2484712,13.1816766 C12.3634843,12.4573873 12.7656308,11.8244776 13.3400973,11.3934127 C13.3424934,11.3510003 13.3466866,11.3089734 13.3466866,11.2661753 C13.3466866,10.0148147 12.295994,9.00057835 11.0004992,9.00057835 C9.70420567,9.00057835 8.65391239,10.0148147 8.65391239,11.2661753 C8.65391239,12.5169576 9.70420567,13.5313867 11.0004992,13.5313867 Z M13.1078747,15.6304183 C12.5767378,15.1386265 12.2404842,14.4550146 12.2159241,13.6964098 C12.1426432,13.6912046 12.070161,13.6856139 11.9954823,13.6856139 L10.0045177,13.6856139 C8.34780981,13.6856139 7,14.9869055 7,16.5862412 L7,18.937627 L7.00618994,18.9738704 L7.17391738,19.0249581 C8.44225633,19.4072487 9.5742169,19.5834532 10.5574192,19.638975 L10.5574192,18.9289517 C10.5578185,17.371643 11.6348683,16.0535791 13.1078747,15.6304183 Z" id="Shape" fill="#FFFFFF" fill-rule="nonzero"></path>
                        </g>
                    </g>
                </g>
            </g>
        </g>
    </g>
</svg>