<?xml version="1.0" encoding="UTF-8"?>
<svg width="30px" height="20px" viewBox="0 0 30 20" version="1.1" xmlns="http://www.w3.org/2000/svg" xmlns:xlink="http://www.w3.org/1999/xlink">
    <!-- Generator: Sketch 50.2 (55047) - http://www.bohemiancoding.com/sketch -->
    <title>upload-to-cloud-button</title>
    <desc>Created with Sketch.</desc>
    <defs></defs>
    <g id="Risk-Assessment-Process" stroke="none" stroke-width="1" fill="none" fill-rule="evenodd">
        <g id="XX1.-Patient-–-PHR" transform="translate(-954.000000, -133.000000)" fill="#14B8A7" fill-rule="nonzero">
            <g id="Group-9" transform="translate(630.000000, 113.000000)">
                <g id="upload-to-cloud-button" transform="translate(324.000000, 20.000000)">
                    <path d="M24.25,7.5 C23.375,3.25 19.625,0 15,0 C11.375,0 8.25,2 6.75,5 C2.875,5.5 0,8.625 0,12.5 C0,16.625 3.375,20 7.5,20 L23.75,20 C27.25,20 30,17.25 30,13.75 C30,10.5 27.375,7.75 24.25,7.5 Z M17.05,11.1375 L17.05,15.2375 L12.95,15.2375 L12.95,11.1375 L9.875,11.1375 L15,6.0125 L20.125,11.1375 L17.05,11.1375 Z" id="Shape"></path>
                </g>
            </g>
        </g>
    </g>
</svg>