<?xml version="1.0" encoding="UTF-8"?>
<svg width="69px" height="69px" viewBox="0 0 69 69" version="1.1" xmlns="http://www.w3.org/2000/svg" xmlns:xlink="http://www.w3.org/1999/xlink">
    <!-- Generator: Sketch 50.2 (55047) - http://www.bohemiancoding.com/sketch -->
    <title>Fill 332 + Fill 333 + Fill 334</title>
    <desc>Created with Sketch.</desc>
    <defs></defs>
    <g id="Risk-Assessment-Process" stroke="none" stroke-width="1" fill="none" fill-rule="evenodd">
        <g id="03.-Patient-–-Risk-Assessment-Info" transform="translate(-855.000000, -306.000000)" fill="#14B8A7">
            <g id="Group-17" transform="translate(776.000000, 268.000000)">
                <g id="Group-16" transform="translate(47.000000, 38.000000)">
                    <g id="Fill-332-+-Fill-333-+-Fill-334" transform="translate(32.000000, 0.000000)">
                        <path d="M67.2303731,14.4017157 C66.3309701,13.7566176 65.1809701,13.585049 64.1373881,13.9316176 C61.4151493,14.8409314 59.3142537,15.2801471 57.7214179,15.2801471 C56.4169403,15.2801471 51.5903731,13.7566176 48.0614179,13.7566176 C45.4558955,13.7566176 43.166194,14.3639706 41.1957463,15.3830882 L41.1957463,36.8257353 C43.1009701,37.4330882 45.3597761,37.7762255 48.0614179,37.7762255 C60.5672388,37.7762255 68.6584328,22.4791667 68.6584328,17.1879902 C68.6584328,16.0830882 68.1263433,15.0468137 67.2303731,14.4017157" id="Fill-332"></path>
                        <path d="M27.4626866,36.8260784 L27.4626866,15.38 C25.4922388,14.3643137 23.1991045,13.7535294 20.5970149,13.7535294 C17.0714925,13.7535294 12.2380597,15.2804902 10.9335821,15.2804902 C9.34074627,15.2804902 7.24328358,14.8412745 4.51761194,13.9319608 C3.47059701,13.5853922 2.32059701,13.7535294 1.4280597,14.4020588 C0.528656716,15.0471569 0,16.0834314 0,17.184902 C0,22.4795098 8.09119403,37.7731373 20.5970149,37.7731373 C23.2986567,37.7731373 25.5540299,37.4334314 27.4626866,36.8260784" id="Fill-333"></path>
                        <path d="M37.761194,12.8033824 C39.8037313,11.6126961 41.1940299,9.42691176 41.1940299,6.89112745 C41.1940299,3.10289216 38.118209,0.0283823529 34.3283582,0.0283823529 C30.5385075,0.0283823529 27.4626866,3.10289216 27.4626866,6.89112745 C27.4626866,9.42691176 28.8529851,11.6126961 30.8955224,12.8033824 L30.8955224,41.2048529 L20.5970149,41.2048529 L20.5970149,48.067598 L30.8955224,48.067598 L30.8955224,54.9303431 L24.0298507,54.9303431 L24.0298507,61.7930882 L30.8955224,61.7930882 L30.8955224,68.6592647 L37.761194,68.6592647 L37.761194,61.7930882 L44.6268657,61.7930882 L44.6268657,54.9303431 L37.761194,54.9303431 L37.761194,48.067598 L48.0597015,48.067598 L48.0597015,41.2048529 L37.761194,41.2048529 L37.761194,12.8033824 Z" id="Fill-334"></path>
                    </g>
                </g>
            </g>
        </g>
    </g>
</svg>