<?xml version="1.0" encoding="UTF-8"?>
<svg width="58px" height="71px" viewBox="0 0 58 71" version="1.1" xmlns="http://www.w3.org/2000/svg" xmlns:xlink="http://www.w3.org/1999/xlink">
    <!-- Generator: Sketch 50.2 (55047) - http://www.bohemiancoding.com/sketch -->
    <title>Fill 350 + Fill 351 + Fill 352</title>
    <desc>Created with Sketch.</desc>
    <defs></defs>
    <g id="Risk-Assessment-Process" stroke="none" stroke-width="1" fill="none" fill-rule="evenodd">
        <g id="03.-Patient-–-Risk-Assessment-Info" transform="translate(-385.000000, -305.000000)" fill="#14B8A7">
            <g id="Group-18" transform="translate(300.000000, 268.000000)">
                <g id="Group-16" transform="translate(46.000000, 37.000000)">
                    <g id="Fill-350-+-Fill-351-+-Fill-352" transform="translate(39.000000, 0.000000)">
                        <path d="M52.2,9 L46.4,9 L46.4,17.75 L49.3,17.75 L49.3,61.5 L8.7,61.5 L8.7,17.75 L11.6,17.75 L11.6,9 L5.8,9 C2.6013,9 0,11.61625 0,14.8333333 L0,64.4166667 C0,67.63375 2.6013,70.25 5.8,70.25 L52.2,70.25 C55.3987,70.25 58,67.63375 58,64.4166667 L58,14.8333333 C58,11.61625 55.3987,9 52.2,9" id="Fill-350"></path>
                        <path d="M33.64,30.3333333 C31.07872,30.3333333 29,32.6666667 29,35 C29,32.6666667 26.92128,30.3333333 24.36,30.3333333 C21.79872,30.3333333 19.72,32.4216667 19.72,35 C19.72,42 29,49 29,49 C29,49 38.28,42 38.28,35 C38.28,32.4216667 36.20128,30.3333333 33.64,30.3333333" id="Fill-3960"></path>
                        <path d="M17.4,20.4166667 L40.6,20.4166667 C42.2008,20.4166667 43.5,19.11 43.5,17.5 L43.5,8.75 C43.5,7.14 42.2008,5.83333333 40.6,5.83333333 L37.2041,5.83333333 C36.0064,2.43833333 32.7816,0 29,0 C25.2184,0 21.9936,2.43833333 20.7959,5.83333333 L17.4,5.83333333 C15.7992,5.83333333 14.5,7.14 14.5,8.75 L14.5,17.5 C14.5,19.11 15.7992,20.4166667 17.4,20.4166667" id="Fill-351"></path>
                    </g>
                </g>
            </g>
        </g>
    </g>
</svg>