<?xml version="1.0" encoding="UTF-8"?>
<svg width="30px" height="30px" viewBox="0 0 30 30" version="1.1" xmlns="http://www.w3.org/2000/svg" xmlns:xlink="http://www.w3.org/1999/xlink">
    <!-- Generator: Sketch 50.2 (55047) - http://www.bohemiancoding.com/sketch -->
    <title>Group 11</title>
    <desc>Created with Sketch.</desc>
    <defs></defs>
    <g id="Risk-Assessment-Process" stroke="none" stroke-width="1" fill="none" fill-rule="evenodd">
        <g id="XX1.-Patient-–-PHR" transform="translate(-76.000000, -400.000000)">
            <g id="Group-4" transform="translate(60.000000, 0.000000)">
                <g id="Group-6" transform="translate(16.000000, 364.000000)">
                    <g id="Group-7" transform="translate(0.000000, 33.000000)">
                        <g id="Group-5">
                            <g id="Group-11" transform="translate(0.000000, 3.000000)">
                                <circle id="Oval-2" fill="#1465B8" cx="15" cy="15" r="15"></circle>
                                <g id="Fill-4371" transform="translate(7.000000, 7.000000)" fill="#FFFFFF">
                                    <path d="M8.6012,7.40233333 C8.52853333,6.71833333 8.5452,6.03433333 8.66653333,5.369 L10.6338667,7.337 C9.9692,7.45766667 9.2852,7.47433333 8.6012,7.40233333 L8.6012,7.40233333 Z M2.68586667,9.76033333 C3.07586667,9.50033333 3.48586667,9.28033333 3.9152,9.10366667 L6.89986667,12.0883333 C6.7232,12.5176667 6.50253333,12.9276667 6.2432,13.3176667 L2.68586667,9.76033333 Z M7.3992,8.60433333 C7.47186667,9.28833333 7.4552,9.97233333 7.33453333,10.6376667 L5.36586667,8.669 C6.0312,8.54833333 6.7152,8.53166667 7.3992,8.60433333 L7.3992,8.60433333 Z M13.3138667,6.24633333 C12.9245333,6.505 12.5145333,6.72566667 12.0845333,6.903 L9.10053333,3.91766667 C9.27786667,3.489 9.49786667,3.079 9.7572,2.68966667 L13.3138667,6.24633333 Z M14.8358667,4.93966667 L14.4125333,5.36166667 C14.3965333,5.37833333 14.3778667,5.391 14.3612,5.40766667 L10.5958667,1.64233333 C10.6118667,1.62566667 10.6252,1.607 10.6418667,1.59033333 L11.0638667,1.16766667 L10.1212,0.225 L9.69853333,0.647666667 C7.95186667,2.395 7.07053333,4.81033333 7.24386667,7.24766667 C4.8072,7.075 2.3912,7.955 0.644533333,9.70166667 L0.221866667,10.125 L1.16453333,11.0676667 L1.5872,10.6443333 C1.60386667,10.6283333 1.62253333,10.615 1.6392,10.599 L5.40453333,14.3643333 C5.38853333,14.381 5.3752,14.3996667 5.35853333,14.4163333 L4.93586667,14.8383333 L5.8792,15.781 L6.3012,15.359 C8.04853333,13.6116667 8.9292,11.1963333 8.75653333,8.75966667 C11.1945333,8.93366667 13.6085333,8.05233333 15.3552,6.305 L15.7785333,5.88233333 L14.8358667,4.93966667 Z"></path>
                                </g>
                            </g>
                        </g>
                    </g>
                </g>
            </g>
        </g>
    </g>
</svg>