<?xml version="1.0" encoding="UTF-8"?>
<svg width="80px" height="67px" viewBox="0 0 80 67" version="1.1" xmlns="http://www.w3.org/2000/svg" xmlns:xlink="http://www.w3.org/1999/xlink">
    <!-- Generator: Sketch 50.2 (55047) - http://www.bohemiancoding.com/sketch -->
    <title>Shape</title>
    <desc>Created with Sketch.</desc>
    <defs></defs>
    <g id="Risk-Assessment-Process" stroke="none" stroke-width="1" fill="none" fill-rule="evenodd">
        <g id="00.-Patient-–-Home" transform="translate(-472.000000, -5160.000000)" fill="#14B8A7" fill-rule="nonzero">
            <path d="M520.276551,5171.49968 C523.97554,5173.80776 526.569325,5177.71352 527.041557,5182.24722 C528.550106,5182.94869 530.224385,5183.35208 531.999501,5183.35208 C538.47997,5183.35208 543.732435,5178.12486 543.732435,5171.67654 C543.732435,5165.22722 538.47997,5160 531.999501,5160 C525.580931,5160.00199 520.374392,5165.13581 520.276551,5171.49968 Z M512.590041,5195.40717 C519.07051,5195.40717 524.322975,5190.17896 524.322975,5183.73064 C524.322975,5177.28231 519.069512,5172.05509 512.590041,5172.05509 C506.11057,5172.05509 500.85511,5177.2833 500.85511,5183.73163 C500.85511,5190.17996 506.11057,5195.40717 512.590041,5195.40717 Z M517.566954,5196.20303 L507.611132,5196.20303 C499.327593,5196.20303 492.588544,5202.91068 492.588544,5211.15441 L492.588544,5223.2711 L492.619493,5223.46087 L493.458131,5223.72218 C501.363285,5226.1803 508.231124,5227 513.883939,5227 C524.924997,5227 531.324598,5223.86725 531.718957,5223.66754 L532.502683,5223.27309 L532.586547,5223.27309 L532.586547,5211.15441 C532.589542,5202.91068 525.850493,5196.20303 517.566954,5196.20303 Z M536.97841,5184.14893 L527.099463,5184.14893 C526.992637,5188.08251 525.305379,5191.62462 522.636715,5194.17216 C529.99975,5196.35107 535.386996,5203.14616 535.386996,5211.17229 L535.386996,5214.90616 C545.141146,5214.55046 550.762012,5211.79924 551.13241,5211.61443 L551.916136,5211.21899 L552,5211.21899 L552,5199.09832 C552,5190.85559 545.260951,5184.14893 536.97841,5184.14893 Z M492.002496,5183.35407 C494.297766,5183.35407 496.433296,5182.68738 498.242356,5181.55172 C498.817422,5177.81884 500.828154,5174.55692 503.700487,5172.33528 C503.712467,5172.11669 503.733433,5171.90009 503.733433,5171.67952 C503.733433,5165.2302 498.47997,5160.00298 492.002496,5160.00298 C485.521028,5160.00298 480.269562,5165.2302 480.269562,5171.67952 C480.269562,5178.12586 485.521028,5183.35407 492.002496,5183.35407 Z M502.539374,5194.17216 C499.883689,5191.63754 498.202421,5188.11431 498.079621,5184.20457 C497.713216,5184.17775 497.350805,5184.14893 496.977412,5184.14893 L487.022588,5184.14893 C478.739049,5184.14893 472,5190.85559 472,5199.09832 L472,5211.217 L472.03095,5211.40379 L472.869587,5211.66709 C479.211282,5213.63736 484.871084,5214.54549 489.787096,5214.83164 L489.787096,5211.17229 C489.789093,5203.14616 495.174342,5196.35306 502.539374,5194.17216 Z" id="Shape"></path>
        </g>
    </g>
</svg>