<?xml version="1.0" encoding="UTF-8"?>
<svg width="30px" height="30px" viewBox="0 0 30 30" version="1.1" xmlns="http://www.w3.org/2000/svg" xmlns:xlink="http://www.w3.org/1999/xlink">
    <!-- Generator: Sketch 50.2 (55047) - http://www.bohemiancoding.com/sketch -->
    <title>Fill 50</title>
    <desc>Created with Sketch.</desc>
    <defs></defs>
    <g id="PTB-Process" stroke="none" stroke-width="1" fill="none" fill-rule="evenodd">
        <g id="06.-Expert-–-PTB-–-PTB-Patient-Write-Up" transform="translate(-321.000000, -478.000000)" fill="#D1D1D1">
            <g id="Group-10" transform="translate(301.000000, 335.000000)">
                <g id="Group-12" transform="translate(20.000000, 143.000000)">
                    <g id="Group-2">
                        <path d="M16.4997735,23.4852814 L13.5002265,23.4852814 L13.5002265,16.4997735 L6.51471863,16.4997735 L6.51471863,13.5002265 L13.5002265,13.5002265 L13.5002265,6.51471863 L16.4997735,6.51471863 L16.4997735,13.5002265 L23.4852814,13.5002265 L23.4852814,16.4997735 L16.4997735,16.4997735 L16.4997735,23.4852814 Z M15,0 C6.717,0 0,6.717 0,15 C0,23.283 6.717,30 15,30 C23.2845,30 30,23.283 30,15 C30,6.717 23.2845,0 15,0 L15,0 Z" id="Fill-50"></path>
                    </g>
                </g>
            </g>
        </g>
    </g>
</svg>