<?xml version="1.0" encoding="UTF-8"?>
<svg width="30px" height="30px" viewBox="0 0 30 30" version="1.1" xmlns="http://www.w3.org/2000/svg" xmlns:xlink="http://www.w3.org/1999/xlink">
    <!-- Generator: Sketch 50.2 (55047) - http://www.bohemiancoding.com/sketch -->
    <title>Group 11</title>
    <desc>Created with Sketch.</desc>
    <defs></defs>
    <g id="PTB-Process" stroke="none" stroke-width="1" fill="none" fill-rule="evenodd">
        <g id="06.-Expert-–-PTB-–-PTB-Patient-Write-Up" transform="translate(-81.000000, -248.000000)">
            <g id="Group-7" transform="translate(60.000000, 0.000000)">
                <g id="Group-20" transform="translate(21.000000, 248.000000)">
                    <g id="Group-11">
                        <circle id="Oval-2" fill="#14B8A7" cx="15" cy="15" r="15"></circle>
                        <g id="Fill-74" transform="translate(9.000000, 7.000000)" fill="#FFFFFF">
                            <path d="M8.66666667,4.36363636 L8.66666667,0.727272727 L12.2777778,4.36363636 L8.66666667,4.36363636 Z M6.4545,13.0909091 C6.4545,13.0909091 3.61111111,11.3701818 3.61111111,9.54690909 C3.61111111,7.81527273 5.9085,7.06472727 6.5455,9.33745455 C7.18322222,7.06472727 9.38888889,7.81527273 9.38888889,9.54690909 C9.38888889,11.5127273 6.69788889,12.9476364 6.4545,13.0909091 L6.4545,13.0909091 Z M9.68788889,0 L1.44444444,0 C0.647833333,0 0,0.653090909 0,1.45454545 L0,14.5454545 C0,15.3476364 0.647833333,16 1.44444444,16 L11.5555556,16 C12.3521667,16 13,15.3476364 13,14.5454545 L13,3.33527273 L9.68788889,0 Z"></path>
                        </g>
                    </g>
                </g>
            </g>
        </g>
    </g>
</svg>