<?xml version="1.0" encoding="UTF-8"?>
<svg width="16px" height="20px" viewBox="0 0 16 20" version="1.1" xmlns="http://www.w3.org/2000/svg" xmlns:xlink="http://www.w3.org/1999/xlink">
    <!-- Generator: Sketch 50.2 (55047) - http://www.bohemiancoding.com/sketch -->
    <title>Fill 20</title>
    <desc>Created with Sketch.</desc>
    <defs></defs>
    <g id="PTB-Process" stroke="none" stroke-width="1" fill="none" fill-rule="evenodd">
        <g id="06.-Expert-–-PTB-–-PTB-Patient-Write-Up" transform="translate(-76.000000, -402.000000)" fill="#999999">
            <g id="Group-7" transform="translate(60.000000, 0.000000)">
                <g id="Group-19" transform="translate(16.000000, 399.000000)">
                    <g id="Group-13">
                        <g id="Fill-20" transform="translate(0.000000, 3.000000)">
                            <path d="M10,6 L10,1 L15,6 L10,6 Z M13,16 L3,16 L3,14 L13,14 L13,16 Z M3,10 L11,10 L11,12 L3,12 L3,10 Z M11.414,0 L2,0 C0.897,0 0,0.898 0,2 L0,18 C0,19.103 0.897,20 2,20 L14,20 C15.103,20 16,19.103 16,18 L16,4.586 L11.414,0 Z"></path>
                        </g>
                    </g>
                </g>
            </g>
        </g>
    </g>
</svg>