<?xml version="1.0" encoding="UTF-8"?>
<svg width="30px" height="30px" viewBox="0 0 30 30" version="1.1" xmlns="http://www.w3.org/2000/svg" xmlns:xlink="http://www.w3.org/1999/xlink">
    <!-- Generator: Sketch 50.2 (55047) - http://www.bohemiancoding.com/sketch -->
    <title>Group 11</title>
    <desc>Created with Sketch.</desc>
    <defs></defs>
    <g id="PTB-Process" stroke="none" stroke-width="1" fill="none" fill-rule="evenodd">
        <g id="06.-Expert-–-PTB-–-PTB-Patient-Write-Up" transform="translate(-81.000000, -300.000000)">
            <g id="Group-7" transform="translate(60.000000, 0.000000)">
                <g id="Group-20" transform="translate(21.000000, 298.000000)">
                    <g id="Group-11" transform="translate(0.000000, 2.000000)">
                        <circle id="Oval-2" fill="#14B8A7" cx="15" cy="15" r="15"></circle>
                        <g id="Fill-299" transform="translate(9.000000, 7.000000)" fill="#FFFFFF">
                            <path d="M8.9375,4 L8.9375,0.8 L12.1875,4 L8.9375,4 Z M10.5625,11.2 L2.4375,11.2 L2.4375,10.4 L10.5625,10.4 L10.5625,11.2 Z M10.5625,13.6 L2.4375,13.6 L2.4375,12.8 L10.5625,12.8 L10.5625,13.6 Z M4.0625,5.6 L5.6875,5.6 L5.6875,4 L7.3125,4 L7.3125,5.6 L8.9375,5.6 L8.9375,7.2 L7.3125,7.2 L7.3125,8.8 L5.6875,8.8 L5.6875,7.2 L4.0625,7.2 L4.0625,5.6 Z M12.7619375,3.4344 L9.5119375,0.2344 C9.3591875,0.0848 9.1528125,0 8.9375,0 L0.8125,0 C0.364,0 0,0.3584 0,0.8 L0,15.2 C0,15.6416 0.364,16 0.8125,16 L12.1875,16 C12.636,16 13,15.6416 13,15.2 L13,4 C13,3.788 12.913875,3.584 12.7619375,3.4344 L12.7619375,3.4344 Z"></path>
                        </g>
                    </g>
                </g>
            </g>
        </g>
    </g>
</svg>