<?xml version="1.0" encoding="UTF-8"?>
<svg width="180px" height="180px" viewBox="0 0 180 180" version="1.1" xmlns="http://www.w3.org/2000/svg" xmlns:xlink="http://www.w3.org/1999/xlink">
    <!-- Generator: Sketch 50.2 (55047) - http://www.bohemiancoding.com/sketch -->
    <title>Group 11</title>
    <desc>Created with Sketch.</desc>
    <defs></defs>
    <g id="Risk-Assessment-Process" stroke="none" stroke-width="1" fill="none" fill-rule="evenodd">
        <g id="00.-Patient-–-Home" transform="translate(-702.000000, -1265.000000)">
            <g id="Group-11" transform="translate(702.000000, 1265.000000)">
                <circle id="Oval-2" fill="#1465B8" cx="90" cy="90" r="90"></circle>
                <g id="Fill-4371" transform="translate(55.000000, 55.000000)" fill="#FFFFFF">
                    <path d="M38.242975,32.7731458 C37.9114333,29.6523958 37.987475,26.5316458 38.5410583,23.4960625 L47.5170167,32.4750625 C44.484475,33.0256042 41.363725,33.1016458 38.242975,32.7731458 L38.242975,32.7731458 Z M11.2542667,43.5315208 C13.0336417,42.3452708 14.9042667,41.3415208 16.8631,40.5354792 L30.4806417,54.1530208 C29.6746,56.1118542 28.6678083,57.9824792 27.4846,59.7618542 L11.2542667,43.5315208 Z M32.75885,38.2572708 C33.0903917,41.3780208 33.01435,44.4987708 32.4638083,47.5343542 L23.4817667,38.5523125 C26.51735,38.0017708 29.6381,37.9257292 32.75885,38.2572708 L32.75885,38.2572708 Z M59.7445167,27.4988958 C57.9681833,28.6790625 56.0975583,29.6858542 54.1356833,30.4949375 L40.5211833,16.8743542 C41.3302667,14.9185625 42.3340167,13.0479375 43.517225,11.2716042 L59.7445167,27.4988958 Z M66.6886417,21.5372292 L64.7571833,23.4626042 C64.6841833,23.5386458 64.5990167,23.5964375 64.522975,23.6724792 L47.3436417,6.49314583 C47.4166417,6.41710417 47.477475,6.3319375 47.5535167,6.25589583 L49.4788917,4.32747917 L45.177975,0.0265625 L43.2495583,1.95497917 C35.2803917,9.9271875 31.2593083,20.9471458 32.0501417,32.0674792 C20.93285,31.2796875 9.90985,35.2946875 1.94068333,43.2638542 L0.0122666667,45.1953125 L4.31318333,49.4962292 L6.2416,47.5647708 C6.31764167,47.4917708 6.40280833,47.4309375 6.47885,47.3579375 L23.6581833,64.5372708 C23.5851833,64.6133125 23.52435,64.6984792 23.4483083,64.7745208 L21.5198917,66.6998958 L25.82385,71.0008125 L27.749225,69.0754375 C35.7214333,61.1032292 39.739475,50.0832708 38.9516833,38.9659792 C50.0750583,39.7598542 61.0889333,35.7387708 69.0581,27.7665625 L70.9895583,25.8381458 L66.6886417,21.5372292 Z"></path>
                </g>
            </g>
        </g>
    </g>
</svg>