<?xml version="1.0" encoding="UTF-8"?>
<svg width="180px" height="180px" viewBox="0 0 180 180" version="1.1" xmlns="http://www.w3.org/2000/svg" xmlns:xlink="http://www.w3.org/1999/xlink">
    <!-- Generator: Sketch 50.2 (55047) - http://www.bohemiancoding.com/sketch -->
    <title>Group 22</title>
    <desc>Created with Sketch.</desc>
    <defs></defs>
    <g id="Risk-Assessment-Process" stroke="none" stroke-width="1" fill="none" fill-rule="evenodd">
        <g id="00.-Patient-–-Home" transform="translate(-142.000000, -1265.000000)">
            <g id="Group-22" transform="translate(142.000000, 1265.000000)">
                <circle id="Oval-2" fill="#D66D75" cx="90" cy="90" r="90"></circle>
                <g id="Group" transform="translate(54.000000, 63.000000)" fill="#FFFFFF">
                    <path d="M43.7737226,5.2842233 C43.7737226,2.36733204 41.3604088,0 38.3868613,0 C35.4133139,0 33,2.36733204 33,5.2842233 C33,10.5684466 43.7737226,21.1368932 43.7737226,21.1368932 C43.7737226,21.1368932 54.5474453,10.5684466 54.5474453,5.2842233 C54.5474453,2.36733204 52.1341314,0 49.1605839,0 C46.1870365,0 43.7737226,2.36733204 43.7737226,5.2842233" id="Fill-978"></path>
                    <path d="M70.1357431,32.4607586 L62.9182248,28.9164553 C62.2614307,28.5939236 61.5252438,28.4769616 60.7926657,28.5797464 L39.6525547,31.5463284 L39.6525547,28.5443034 C39.6525547,26.5843036 38.0358307,25 36.0437956,25 L18,25 L18,49.8561997 L39.0571095,53.3048069 C39.768035,53.4253132 40.5547445,53.329617 41.2656701,52.978731 L70.1357431,38.8015174 C71.3591124,38.2025302 72.1313869,36.9726569 72.1313869,35.6329102 C72.1313869,34.2896192 71.3591124,33.0597459 70.1357431,32.4607586" id="Fill-979"></path>
                    <path d="M10.6423358,21 L3.54744526,21 C1.58925547,21 0,22.5910524 0,24.5514563 L0,49.4116505 C0,51.3720544 1.58925547,52.9631068 3.54744526,52.9631068 L10.6423358,52.9631068 C12.6005255,52.9631068 14.189781,51.3720544 14.189781,49.4116505 L14.189781,24.5514563 C14.189781,22.5910524 12.6005255,21 10.6423358,21" id="Fill-980"></path>
                </g>
            </g>
        </g>
    </g>
</svg>