<?xml version="1.0" encoding="UTF-8"?>
<svg width="65px" height="80px" viewBox="0 0 65 80" version="1.1" xmlns="http://www.w3.org/2000/svg" xmlns:xlink="http://www.w3.org/1999/xlink">
    <!-- Generator: Sketch 50.2 (55047) - http://www.bohemiancoding.com/sketch -->
    <title>Fill 153</title>
    <desc>Created with Sketch.</desc>
    <defs></defs>
    <g id="Risk-Assessment-Process" stroke="none" stroke-width="1" fill="none" fill-rule="evenodd">
        <g id="00.-Patient-–-Home" transform="translate(-826.000000, -1926.000000)" fill="#14B8A7">
            <g id="Fill-153" transform="translate(826.000000, 1926.000000)">
                <path d="M60.9375,15.908 C63.18,15.908 65,17.7 65,19.908 L65,47.908 C65,63.136 37.5253125,77.82 34.393125,79.444 C33.8,79.752 33.15,79.904 32.5,79.904 C31.85,79.904 31.2,79.752 30.606875,79.444 C27.4746875,77.82 0,63.136 0,47.908 L0,19.908 C0,17.7 1.82,15.908 4.0625,15.908 C18.0375,15.908 29.144375,1.648 29.2540625,1.5 C30.7896875,-0.5 34.2103125,-0.5 35.7459375,1.5 C35.855625,1.648 46.9625,15.908 60.9375,15.908 Z M32.5,60 C32.5,60 48.75,44 48.75,36 C48.75,31.576 45.118125,28 40.625,28 C36.14,28 32.5,31.576 32.5,36 C32.5,31.576 28.868125,28 24.375,28 C19.89,28 16.25,31.576 16.25,36 C16.25,44 32.5,60 32.5,60 Z" id="Combined-Shape"></path>
            </g>
        </g>
    </g>
</svg>