<?xml version="1.0" encoding="UTF-8"?>
<svg width="30px" height="30px" viewBox="0 0 30 30" version="1.1" xmlns="http://www.w3.org/2000/svg" xmlns:xlink="http://www.w3.org/1999/xlink">
    <!-- Generator: Sketch 50.2 (55047) - http://www.bohemiancoding.com/sketch -->
    <title>Group 11</title>
    <desc>Created with Sketch.</desc>
    <defs></defs>
    <g id="Risk-Assessment-Process" stroke="none" stroke-width="1" fill="none" fill-rule="evenodd">
        <g id="XX1.-Patient-–-PHR" transform="translate(-76.000000, -304.000000)">
            <g id="Group-4" transform="translate(60.000000, 0.000000)">
                <g id="Group-20" transform="translate(16.000000, 304.000000)">
                    <g id="Group-2">
                        <g id="Public-health-record">
                            <g id="Group-11">
                                <circle id="Oval-2" fill="#14B8A7" cx="15" cy="15" r="15"></circle>
                                <g id="Fill-58" transform="translate(7.000000, 7.000000)" fill="#FFFFFF">
                                    <path d="M16,9.6 L14.1904,9.6 C13.9984,10.3456 13.68,11.0384 13.252,11.6512 L14.4,12.8 L12.8,14.4 L11.652,13.2512 C11.0376,13.68 10.3456,13.9984 9.6,14.1904 L9.6,16 L6.4,16 L6.4,14.1904 C5.6544,13.9984 4.9616,13.68 4.348,13.2512 L3.2,14.4 L1.6,12.8 L2.748,11.6512 C2.32,11.0384 2.0016,10.3456 1.8096,9.6 L0,9.6 L0,6.4 L1.8096,6.4 C2.0016,5.6544 2.32,4.9616 2.748,4.3488 L1.6,3.2 L3.2,1.6 L4.348,2.7488 C4.9616,2.32 5.6544,2.0016 6.4,1.8096 L6.4,0 L9.6,0 L9.6,1.8096 C10.3456,2.0016 11.0376,2.32 11.652,2.7488 L12.8,1.6 L14.4,3.2 L13.252,4.3488 C13.68,4.9616 13.9984,5.6544 14.1904,6.4 L16,6.4 L16,9.6 Z M8,11.2 C9.7673112,11.2 11.2,9.7673112 11.2,8 C11.2,6.2326888 9.7673112,4.8 8,4.8 C6.2326888,4.8 4.8,6.2326888 4.8,8 C4.8,9.7673112 6.2326888,11.2 8,11.2 Z" id="Combined-Shape"></path>
                                </g>
                            </g>
                        </g>
                    </g>
                </g>
            </g>
        </g>
    </g>
</svg>