<?xml version="1.0" encoding="UTF-8"?>
<svg width="99px" height="74px" viewBox="0 0 99 74" version="1.1" xmlns="http://www.w3.org/2000/svg" xmlns:xlink="http://www.w3.org/1999/xlink">
    <!-- Generator: Sketch 50.2 (55047) - http://www.bohemiancoding.com/sketch -->
    <title>Group</title>
    <desc>Created with Sketch.</desc>
    <defs></defs>
    <g id="Risk-Assessment-Process" stroke="none" stroke-width="1" fill="none" fill-rule="evenodd">
        <g id="00.3.-Advocacy-–-Info" transform="translate(-207.000000, -347.000000)" fill="#FFFFFF">
            <g id="Group-3">
                <g id="Group" transform="translate(207.000000, 347.000000)">
                    <path d="M59.9640036,7.24134304 C59.9640036,3.24412168 56.6580942,0 52.5847415,0 C48.5113889,0 45.2054795,3.24412168 45.2054795,7.24134304 C45.2054795,14.4826861 59.9640036,28.9653722 59.9640036,28.9653722 C59.9640036,28.9653722 74.7225277,14.4826861 74.7225277,7.24134304 C74.7225277,3.24412168 71.4166183,0 67.3432657,0 C63.269913,0 59.9640036,3.24412168 59.9640036,7.24134304" id="Fill-978"></path>
                    <path d="M96.0763604,44.4832619 L86.1893491,39.6262535 C85.289631,39.1842657 84.2811559,39.0239845 83.2776242,39.1648377 L54.3185681,43.2301537 L54.3185681,39.1162676 C54.3185681,36.430342 52.1038776,34.2592593 49.3750625,34.2592593 L24.6575342,34.2592593 L24.6575342,68.3214589 L53.5028897,73.047328 C54.4767603,73.2124663 55.5544446,73.0813271 56.5283152,72.6004832 L96.0763604,53.1724498 C97.7522088,52.3516154 98.810119,50.6662335 98.810119,48.8302843 C98.810119,46.9894782 97.7522088,45.3040963 96.0763604,44.4832619" id="Fill-979"></path>
                    <path d="M14.5785421,28.7777778 L4.85951405,28.7777778 C2.17706229,28.7777778 0,30.9581089 0,33.6445883 L0,67.7122618 C0,70.3987412 2.17706229,72.5790723 4.85951405,72.5790723 L14.5785421,72.5790723 C17.2609939,72.5790723 19.4380562,70.3987412 19.4380562,67.7122618 L19.4380562,33.6445883 C19.4380562,30.9581089 17.2609939,28.7777778 14.5785421,28.7777778" id="Fill-980"></path>
                </g>
            </g>
        </g>
    </g>
</svg>