<?xml version="1.0" encoding="UTF-8"?>
<svg width="16px" height="17px" viewBox="0 0 16 17" version="1.1" xmlns="http://www.w3.org/2000/svg" xmlns:xlink="http://www.w3.org/1999/xlink">
    <!-- Generator: Sketch 50.2 (55047) - http://www.bohemiancoding.com/sketch -->
    <title>Group 10</title>
    <desc>Created with Sketch.</desc>
    <defs></defs>
    <g id="Risk-Assessment-Process" stroke="none" stroke-width="1" fill="none" fill-rule="evenodd">
        <g id="15.-Patient-–-Messages-–-Attached-Test-Result" transform="translate(-660.000000, -701.000000)" fill="#14B8A7" fill-rule="nonzero">
            <g id="Group-2" transform="translate(400.000000, 148.000000)">
                <g id="Group-10" transform="translate(258.000000, 552.000000)">
                    <g id="Group-9">
                        <path d="M13.86,5 L13.86,14.5833333 C13.86,16.4242825 12.3556768,17.9166667 10.5,17.9166667 C8.64432324,17.9166667 7.14,16.4242825 7.14,14.5833333 L7.14,4.16666667 C7.14,3.01607344 8.08020203,2.08333333 9.24,2.08333333 C10.399798,2.08333333 11.34,3.01607344 11.34,4.16666667 L11.34,12.9166667 C11.34,13.376904 10.9639192,13.75 10.5,13.75 C10.0360808,13.75 9.66,13.376904 9.66,12.9166667 L9.66,5 L8.4,5 L8.4,12.9166667 C8.4,14.0672599 9.34020203,15 10.5,15 C11.659798,15 12.6,14.0672599 12.6,12.9166667 L12.6,4.16666667 C12.6,2.3257175 11.0956768,0.833333333 9.24,0.833333333 C7.38432324,0.833333333 5.88,2.3257175 5.88,4.16666667 L5.88,14.5833333 C5.88,17.1146384 7.94844446,19.1666667 10.5,19.1666667 C13.0515555,19.1666667 15.12,17.1146384 15.12,14.5833333 L15.12,5 L13.86,5 Z" id="Shape" transform="translate(10.500000, 10.000000) rotate(45.000000) translate(-10.500000, -10.000000) "></path>
                    </g>
                </g>
            </g>
        </g>
    </g>
</svg>