<?xml version="1.0" encoding="UTF-8"?>
<svg width="30px" height="30px" viewBox="0 0 30 30" version="1.1" xmlns="http://www.w3.org/2000/svg" xmlns:xlink="http://www.w3.org/1999/xlink">
    <!-- Generator: Sketch 50.2 (55047) - http://www.bohemiancoding.com/sketch -->
    <title>Group 9</title>
    <desc>Created with Sketch.</desc>
    <defs></defs>
    <g id="Risk-Assessment-Process" stroke="none" stroke-width="1" fill="none" fill-rule="evenodd">
        <g id="11.-Patient-–-Risk-Assessment-–-Experts-Assigned" transform="translate(-638.000000, -368.000000)">
            <g id="Progress" transform="translate(300.000000, 268.000000)">
                <g id="Group-14" transform="translate(70.000000, 100.000000)">
                    <g id="Group-21" transform="translate(201.000000, 0.000000)">
                        <g id="Group-9" transform="translate(67.000000, 0.000000)">
                            <path d="M15,0 C6.73,0 0,6.73 0,15 C0,23.27 6.73,30 15,30 C23.27,30 30,23.27 30,15 C30,6.73 23.27,0 15,0 L15,0 Z" id="Path" fill="#14B8A7"></path>
                            <path d="M18.8216667,21.1783333 L13.8216667,16.1783333 C13.5083333,15.8666667 13.3333333,15.4433333 13.3333333,15 L13.3333333,6.66666667 L16.6666667,6.66666667 L16.6666667,14.31 L21.1783333,18.8216667 L18.8216667,21.1783333 Z" id="Fill-3030" fill="#FFFFFF"></path>
                        </g>
                    </g>
                </g>
            </g>
        </g>
    </g>
</svg>